<?xml version="1.0" encoding="utf-8"?>
<!-- Generator: Adobe Illustrator 21.1.0, SVG Export Plug-In . SVG Version: 6.00 Build 0)  -->
<svg version="1.1" id="Layer_1" xmlns="http://www.w3.org/2000/svg" xmlns:xlink="http://www.w3.org/1999/xlink" x="0px" y="0px"
	 viewBox="0 0 1965.2 1806.2" style="enable-background:new 0 0 1965.2 1806.2;" xml:space="preserve">
<style type="text/css">
	.st0{fill:#0098A4;}
	.st1{fill:#93C953;}
	.st2{fill:#76B240;}
	.st3{fill:#BDD74C;}
	.st4{fill:#E2E665;}
	.st5{fill:#008896;}
	.st6{fill:#007E87;}
	.st7{fill:#007075;}
	.st8{fill:#FFFFFF;}
</style>
<g id="Object">
	<g>
		<circle class="st0" cx="972.2" cy="938.1" r="537.9"/>
		<path class="st1" d="M1510.2,938.1c0-13.9-0.5-27.7-1.6-41.3c-3.3,0.1-6.9,0.6-9.9-0.4c-3.1-1-4.7-2.8-8.1-3
			c-2.5-0.1-7.3,1.1-9.4-0.2c-1.2-0.8-2-2.5-3.6-3.4c-1.7-1-3.3-1.6-4.9-2.8c-3.9-2.8-10.9-7.4-16.2-6.7c-4.3,0.5-3.3,2.5-6.7,5.2
			c-4.7,3.7-5.5-0.2-8.5-3.3c-2.9-2.9-5.6-6.3-9.4-7.8c-2.5-1-5.6-1.2-8-2.4s-4.6-3.3-6.7-4.9c-5.8-4.2-10.8-8.9-17.7-11.2
			c-6.1-2.1-11.9-1.8-11.9-9.6c0-6.1,2.2-11.8,1.8-18c-0.7-9.3-3.9-19.5-14.6-17.6c-7.5,1.3-11,1.7-17.8-2.1
			c-5.7-3.2-10.2,0-16.3,1.7c-6.9,1.9-14,3.9-21.2,4.7c-1.4,0.2-15.9,1.8-17.2,0.4c-1.7-1.9-0.6-5.2,0.5-8c2.3-5.4,6.3-9.8,11.5-13
			c6.1-3.7,15.9-3.1,21.3-8.5c6.6-6.5-1-19.1,9.7-22.7c4.6-1.6,10.3-0.1,14.6,1.4c4.4,1.6,8.4,1.8,12.9,1.7c0.9-3.5,0-35.9,8.1-30.8
			c0.9,0.6,2.7,3.6,3.5,4.4c1.8,2,3.5,4.1,5.1,6.3c3,3.8,5.3,7.4,8.9,10.5c5.9,5.2,7.6,11.1,11.9,17.4c2.2,3.2,5.9,4.9,7.5,8.4
			c2.3,4.7-2,10.7-3.8,15.2c-2.5,6.1-5.3,11.7-5.1,18.5c0.1,3.7,1.9,12.2,6.7,12.1c1.5,0,7.4-6.5,8-8.1c0.9-2.1-0.7-4.9,0-6.7
			c0-1.2,0.7-1.8,2-1.9c2.4-2.4,6-2,8-5c2.6-3.9,2.5-13.5,1.6-18c-0.8-4.2-3-5.1-5.5-8.3c-2.8-3.7-4-8.5-6.3-12.5
			c-3.5-6.1-7.5-12.3-9.1-19.2c2.4,0,7.4,2.7,9.7,3.7c4.1,1.8,6,4.8,9.4,7.1c3.1,2.1,7.7,1.9,9.6,5.6c1,1.9,1.7,7.3,1.9,9.4
			c0.3,2.5-0.7,5,0.2,7.4c1.1,1.1,2,2.3,2.7,3.6c0.9,2.7,0.9,6.5,1.5,9.4c1.1,5.4,1.8,10.6,4.1,15.7c1,2.2,2.4,4,2.9,6.3
			c1.9,9.3-3.3,20.5,1.8,29.1c2.7,4.6,7.3,7,10.9,10.6c1.4,1.4,1.9,3.1,3.1,4.5c4.7,5.2,18,4.8,24.7,4.8c3.6,0,6-0.4,8.2-1.7
			c-22.9-165.8-121.2-307.4-259.3-389.1c-1.1,1.9-2.1,3.8-2.9,5.5c-0.9,2.3-1.5,8.8-0.7,11.4c0,1,0.6,1.7,1.7,1.8
			c1.2,2.1,2.7,3.9,3.8,6.4c1.9,4.1,4.4,7.8,6.5,11.7c4.4,8.4,3.1,16.2,11,23.3c4,3.6,11.9,7.7,13,13.8c0.8,4.6-4.6,6.6-3,11
			c1,1.8,2.6,3.1,4.7,3.6c3.4,1.9,6.9,4.1,9.7,6.9c4.1,4.2,6.6,10.1,10.4,14.4c3.5,3.9,9,4.3,12.9,7.7c2.9,2.5,5.2,6.1,8.5,8.3
			c1.6,0.2,3,0.7,4.3,1.7c1.4,1.5,1.9,6.2,2,8.1c0.1,5.2-3.2,10.6-7.8,13.1c-5.6,3-10.7,2.3-15.8-1c-2.7-1.8-1.4-2.9-3.9-0.5
			c-1.2,1.2-1.1,3.4-2.3,4.7c-3.4-3.1-5.3-8.9-7.8-12.8c-2.2-3.4-5.5-8.3-8.4-11c-4.5-4.2-10.3-4.1-15.4-6.7
			c-5.3-2.8-7.6-9.7-10.2-14.6c-3.7-6.8-9.3-12-16.6-14.4c-5.3-1.8-8.3-4.3-10.2-9.4c-2.4-6.5-13-15.3-20.8-12.2
			c-4,1.6-10.8,11.7-10.4,16c0.6,5.7,11.7,3.3,14.3,8.3c3.3,6.4-6.4,12-0.2,18c2.8,2.7,10.3,4.4,14.2,4.9c3.8,0.5,6.1,0.9,9.8,2.7
			c3.4,1.7,4.7,3.9,6.5,7.3c2.5,4.9,6.8,8.4,6.6,14c0.2,1.3,0.1,2.5-0.3,3.8c-0.9,1.5-3,1.1-3.2,3.1c-0.4,3.2,3.8,6.2,1.8,10
			c-1.9,3.5-8.8,4.4-11.5,1.6c-3.3-3.4-0.2-7.8-1.4-11.7c-0.9-2.9-3.7-4.6-6.2-6c-3.7-2.2-4.7-3.6-7.3-7c-3.8-4.9-10.2-9.8-15.9-4.6
			c-2.3,2.1-7.2,9.7-6.8,13c0.6,4.1,5.6,4.4,7,8c2.4,6.4-4.3,17.8,3.4,22.6c2,1.2,6.9,0.2,9.1,0.3c4.1,0,6.6-1.1,10.5-1.7
			c5.4-0.9,5.6,3.1,9.8,4.8c3.3,1.3,8,0.3,10.8-1.3c2,4.7-1.6,7.8,3.9,11c4.3,2.5,8.7,0.6,12.8,1.9c3.5,1.1,3.1,5.2,3.2,8.2
			c0.2,5.7-1.1,8.7,4.8,11.1c4.4,1.8,12.6,1.4,14.6,6.5c1.3,3.4-0.3,6,1.6,8.9c3.4,5.2,9.2,6,10.1,12.8c0.3,2.1-0.1,4.5-0.1,6.6
			c0.1,2.7,0.8,4,1.3,6.5c1.1,4.9-2.5,6.5-6.8,6.6c-7.4,0.2-14.9-0.2-22.3-0.1c-5.1,0.1-11,1.5-14.8,5.3c-2.6,2.6-2.3,10.8-1.6,14.4
			c0.5,2.4,1.7,3.5,1.4,6.1c-0.2,1.7-1.2,3.4-1.4,5.2c-0.6,5.4,2.7,7.9,3.4,12.7c0.6,4.1-0.9,8.6-3.3,11.8
			c-2.2,2.9-10.9,6.1-11.4,9.8s5.7,9.2,8.8,10.3c5.2,1.8,7.7,1.2,12.3-1c5-2.3,8.9-0.6,11.6,4.4c1.7,3.2,3.3,13.5,1.3,16.9
			c-1.9,3.3-11.4,5.1-14.9,5.3c-6.3,0.4-7.9-1.5-9.8,4.8c-1.7,5.6,0.2,8,1.7,13.5c2,7.5-2.8,12.8-7.9,17.7
			c-3.5,3.3-7.5,5.1-11.3,7.9c-2.5,1.8-4.1,4.6-6.7,6.4c-1.8,1.2-3.2,2-4.8,3.5c-3.7,3.4-5.8,6.4-6.6,11.5c-0.4,2.8,0.1,3.9-1.4,6.5
			c-2.3,4-7.3,6.5-11.3,8.2c-7.8,3.3-5.1,8.1-3.9,15.1c1,6.4-0.1,9.8-3,15.5c-1.7,3.3-4.1,10.2-2.7,13.7
			c3.4,8.3,13.2,10.9,12.8,20.9c-0.3,7.5-7.7,13.1-10.5,19.9c-1.8,4.3-1.8,10.3,0.1,14.6c2.2,5.2,5.1,9.4,9.1,13.3
			c4.6,4.5,6.2,7.8,6.1,14.3c0,3.6-1.4,10.3,1.1,13.2c1.4,1.7,4,2.2,5.7,3.4c3.8,2.7,7.8,5,11.5,7.7c5.3,3.9,9.9,11.3,11.1,17.8
			c0.4,2.2-0.3,3.3,1.1,5.3c1.3,2.1,3.8,2.8,5.4,4.8c5.8,0,22.9,2.3,27.6-1.9c1.4-1.3,2.9-5.9,5.1-6.2c2.7-0.4,3.4,2.1,5.2,3.6
			c4.3,3.7,12.4,4,17.8,2.5c2.3-0.6,4.5-2.3,6.5-3.4c1.1-0.6,3.5-2.9,4.7-3c4.5-0.3,7.7,7.2,8.7,10.4c1.6,5,0.6,9.4,1.1,14.4
			c0.2,1.7,0,3.4,1.2,4.9c1.8,2.3,2.1,1,5,1.4c5.8,1,8.8,7.5,9.9,13.1c0.4,2.3-0.1,4.4,0.2,6.5c0.4,2.4,1.9,3.9,1.9,6.5
			c0,5.1-4.4,8.4-5.2,13.2c-0.6,3.6-0.2,8.6,0.5,12.1c1,5.1,0.4,10.7,1.6,15.6c1,4.2,2.8,10.2,1.1,14.7c-2.6,6.8-11.9,8.9-17.1,12.5
			c-6.2,4.2-7.2,9-9.3,15.6c-1.7,5.4-2.1,9.5-6.3,12.9c-3.3,2.7-5.5,4.5-9.6,5.9c-3.4,1.1-5.9,2.2-7.9,5.4
			c-2.2,3.5-3.3,7.8-3.5,11.8c-0.2,4-0.5,8.8,0,12.8c0.6,4.5,1.7,8.3,1.7,13.1c0,8.6-1.6,16.7-8.7,22.5c-3.7,3.1-9,3.8-13,6.7
			c-5,3.5-6.8,5.5-9,11.1c-0.6,1.5-1.3,3.9-2.3,5.3c-2.6,3.5-7.6,4.1-10.9,6.9c-7.9,6.8-14.2,16.6-16.3,27.1
			c-0.5,2.6-1.1,7.5-0.5,10.2c1.9,8.1,14.5,3.6,19.2,1.3c5.5-2.7,15.1-11.1,21.9-9.7c2.3,0.5,3.2,2.4,5.4,3.2
			c4,1.4,8.6-0.1,12.4-1.3c2.5-0.8,4.8-1.5,7.1-2.1C1425.7,1270.3,1510.2,1114.1,1510.2,938.1z"/>
		<path class="st1" d="M1066.3,413.7c1.4-1.5,2.2-3.1,2.7-4.8c-31.4-5.7-63.8-8.7-96.8-8.7c-275.7,0-503,207.4-534.2,474.8
			c1.8,0.3,3.7,0.3,5,2.3c2.6,3.8,0.4,12.1-1,15.9c-2.8,7.6-5.7,15.5-1.3,23.3c0.7,1.3,2.8,5.1,4.5,4.8c1.8-0.3,3.1-6.5,5.4-7.7
			c2.9,3.9,2.9,8.6,4.8,13c2.9,6.9,5,14.2,11,19.2c12,10.1,19.8,21.8,26.6,35.9c1.4,2.9,4.1,13.5,8.1,14.5
			c4.8,1.3,3.2-13.9,2.5-16.2c-1.3-4.7-2.9-9.7-4.2-14.5c-0.7-2.9-0.2-5.7-0.7-8.7c-0.5-2.6-2.7-5.1-0.6-7.3
			c2.7,1.3,2.8,4.2,4.2,6.6c1.4,2.4,3.1,4.1,4.9,6.1c4.8,5.2,6.7,9.9,8.6,16.7c1.6,5.7,0.8,10.5,3.2,15.9c2.8,6.1,1.2,14.5,4.8,19.9
			c2.4,3.5,8.8,6.5,12.6,7.7c8.6,2.5,17.3,5.8,26.3,6.9c14,1.6,27.8,6.7,42,6.6c5.4-0.1,11.7-1,16.8,1.2c4.6,2,9.6,3.6,14.2,5.7
			c6.2,2.8,12,8.4,17.2,12.7c5.5,4.4,7.6,11.4,13.8,14.9c6.1,3.4,14.3,2.2,19.9,6.3c2.7,2,4,5.7,6.3,8.1c3.6,3.8,5.7,3.1,10.7,3.9
			c6.2,1,11.6,2.8,18,2.9c6.3,0,7.3-0.2,8-6.4c3.2-0.8,8,7.6,9.6,9.9c4.4,6.4,4.9,11.8,4.9,19.3c0,3.1,0.6,6.6-0.2,9.7
			c-1.1,4.7-4.8,8.4-7.3,12.4c-3.2,5.3-8.4,12.7-6.9,19.1c0.6,2.7,2.1,5.1,2.6,7.8c0.7,3.2,0.2,6.3,0.3,9.6
			c0.2,6.3,3.7,11.7,6.9,17.1c6.8,11.4,21.7,12.7,30.7,22.2c2.3,2.4,3.2,6,4.5,8.9c1.2,2.8,2,3.4,3.7,5.6c2.9,3.8,3.8,8.9,8.1,12
			c4.6,3.2,11.2,3.3,16.5,5.1c9.5,3.2,18.7,4.8,27.7,9.4c6.1,3.1,7.7,8.3,8.1,15c0.5,7.5-0.2,15.2-0.1,22.7c0,5.7,2.6,8.8,6.5,12.9
			c6.8,7.2,14.2,14,19.4,22.5c4,6.6,7.3,13.7,8.9,21.2c0.9,4.5,2,9,2.9,13.4c0.7,3.7-0.9,7.8,0.2,11.5c1.5,4.6,3.7,8.1,4.5,13
			c0.9,5.8,4.3,11.2,6.2,16.8c1.7,5.3,4.2,9.3,7,14c2.6,4.2,6.4,4.8,9.7,8.9c4.2,5.1,10.5,7.4,14.8,12.7c4.2,5.1,8,8.9,13.3,12.6
			c3.7,2.6,6.8,5.5,10.7,7.8c4.2,2.5,7.3,2.5,12.2,2.4c3.5-0.1,9.1-1.6,6-6.7c-1.2-2-4.7-1.6-6.5-3c-2.2-1.7-3.9-6-4.9-8.5
			c-1.8-4.1-2.5-9.9-1.6-14.3c0.4-2.1,1.3-3.2,2.2-5.1c1.4-3.1,1.4-6,1.2-9.5c-0.2-4.3-2.7-7.1-3.4-11.3c-1-6.1,1.4-9.1,5.1-13.1
			c1.7-1.9,5.1-5.5,5-8.5c-0.1-4.2-7.2-5.5-6.7-9.6c4.5-1.2,14.5,0.8,17.7-3.3c1.4-1.8-0.2-6.1,0.1-8.1c0.6-3.4,2.1-7.3,3.3-10.6
			c2.6-6.8,5-8.9,11.1-12.6c6.3-3.8,6.9-5.5,6.9-12.6c-0.1-8.3-1.9-22,6.5-27c1.3-0.8,3.3-2,4.8-2.5c3.3-1.1,6.9,0.7,10.1-0.2
			c3.8-1.1,5.7-8,6.5-11.8c1-5-1.7-9.7,2-14.1c2.6-3.2,6.3-3,9.4-5.1c5.4-3.7,5.5-8.9,5-14.9c-0.2-2.5-1.4-4.1-1.8-6.5
			c-0.4-2,0.1-4.7,0.1-6.8c-0.1-10.4,7.7-13.4,13.2-20.9c1.4-2,1.8-4.1,3.1-6.2c1.9-2.9,4.7-5,6.6-8c4.3-6.7,4.9-12.6,4.9-20.2
			c0-3.9-0.7-6.2-1.3-10c-0.7-4.6,1.2-8.3,2.4-12.6c-1.2-0.9-2-2.4-3.2-3.2c-2.9-1.9-8.1-1.5-11.3-2.3c-7.3-1.8-12.5-3.9-16.2-10.1
			c-3.2-5.4-6.4-11-12.3-13.7c-9.3-4.3-19.8-2.5-29.5-3.9c-7.7-1.1-15-2.8-21.2-7.7c-6.9-5.4-10.7-13.5-16.7-19.7
			c-2.8-3-5.5-5.5-7.5-9.1c-1.3-2.2-2-4.9-3.8-6.9c-3.6-4.1-9.1-3.6-13.5-6.6c-6-4.1-6.9-12.9-14.6-14.7c-7.1-1.7-16.4-0.3-23.6-0.2
			c-7.7,0.1-10.1-3.1-15.4-8.3c-5.3-5.1-12.4-7-18.7-10.6c-6.6-3.7-14.7-5.3-22.1-5.7c-4.9-0.3-11.3-0.9-16.2,0
			c-5.3,0.9-9.1,3.5-14.7,3.4c-7.5-0.1-15.4-0.6-22.9-0.1c-5.3,0.3-9.8,2.4-14.7,3.4c-1.6,0.3-3.6-0.3-5.3-0.2
			c-2.3,0.2-4,1.3-6.2,1.8c-2.4,0.5-3.6-0.4-5.8,1.5c-0.9,0.7-3.4,3.8-4.1,4.7c-1.5,2.1-1.2,0.7-1.6,3.6c-0.3,2.2,0.7,3.7-1.1,5.4
			c-3.4,3.4-16.4,1.1-21.4,1.2c-3.4,0-7.4,0.5-10.2-2c-2.6-2.2-4-6.4-5.2-9.4c-1.7-4.2-1.2-8.1-1.2-12.7c0-3.9,1.6-10.5-1.5-13.6
			c-2.1-2-2.9-0.8-5.1-1.5c-1.5-0.5-1.7-1.3-3.1-2.1c-3.7-2.1-5.9-4.8-10.2-5.7c-6-1.3-13.5-0.9-19.4,0.8c-6,1.8-9.1,3.5-9.8-4.4
			c-0.4-5.3,0.9-10.1,2.1-15.2c1-4,1.3-7.4,2.9-10.9c1.2-2.8,2.2-5.9,4.8-7.9c2.6-1.9,5.8-3.3,8.3-5.2c2.8-2.2,6-5,9.8-6.2
			c2.4-0.8,4.2-0.4,6.8,0c3,0.7,6,1.1,9.1,1.4c1.3,0,2.7-0.1,4-0.2c3.3,1.6,2.5,8.5,4.3,11.7c1.9,3.5,4.9,8,7.4,11
			c2.3,2.7,4.9,5,1.3,8.6c-3,3-7.7,0.8-11.4,1.8c-0.4,2,3.5,6.5,5.1,7.3c2.5,1.3,5.2,0.6,7.8,0.6c5.9,0,8.9-2.1,14.3-4.3
			c2.2,3.4,6.8,5.8,10.6,7.3c2,0.5,3.9,1,5.9,1.5c1.8,1.1,1.8,2.2,3.4,3.4c2.5,1.7,5.6,2.5,8.6,2.1c5.1-0.7,6-1.5,11.1,0.4
			c3.2,1.2,5.2,2.3,8,4.1c4.2,2.6,6.7,2.9,9.9-0.7c2-2.3,4.5-7.2,3.3-10.4c-1-2.9-5.7-3.4-8.2-4.8c-3.7-2-7.5-5-11.5-6.3
			c-3.6-1.1-6.4-1.1-9.8-3.1c-2.9-1.7-3.1-1.5-6.4-2c-2.3-0.3-4-1.6-6.5-1.8s-6,0.9-8.4,0.2c-3.5-1-4.1-4.9-6.4-7.6
			c-1.4-1.6-3-2.9-4.5-4.4c-4.3-4.6-5.4-10-7.3-15.6c-2-5.7-7.5-7.3-12.7-8.9c-2.1-0.7-5.1-2.1-6.9-2.5c-2.6-0.5-5.2,0-7.8-0.7
			c-5.5-1.4-13.5-2.5-19.3-1.4c-9.1,1.8-12,8.4-17.9,14.8c-2.1,2.3-4.1,4.9-6.9,6.7c-3.8,2.3-5.8-0.8-10.2-0.3
			c-10.5,1.3-12,17.3-16.3,24.8c-2.2,3.7-3.2,3.6-7.4,4.7c-4,1.1-7.5,3.4-11.5,4.6c-2.8,0.8-5.6,1.9-8.4,2
			c-3.9,0.2-7.4-1.3-11.3-1.9c-3.1-5.7,8.1-9.7,6.9-15.6c-1.3-6.4-6.8-11.2-8.4-17.5c-1.7-6.8-1.1-17.4,1.6-23.9
			c1.5-3.6,3.7-8,6.1-11.1c2.6-3.5,7.5-3.5,10.1-6.7c4.2-5.2,1.3-11.1,2.9-16.4c2.3-7.4,12.8-1.3,17.7-0.3c3.8,0.8,7.8,0.3,11.6,0.3
			c1.9,0,5,0.6,6.8,0.1c8.9-2.3-3.8-7.5-6.6-8.8c0.3-1.1,1.2-1.5,2.6-1.1c1-0.1,2-0.2,3-0.4c2.6-0.9,5.1-1.8,7.7-2.7
			c2.3-0.5,4,0,6.3-0.2c2.7-0.2,5.2-1.6,8-1.8c6.1-0.4,15.9-2.2,17.9,5c0.9,3.2,0.9,6.9,1.6,10.2c1,4.6,2.1,6.5,5.3,9.8
			c3.1,3.1,5.1,4.3,9.8,4.5c2.3,0.1,7.9,0.9,9.9-0.3c3.2-2,1.6-9.6,1.5-12.6c-0.2-5.5-3.2-4.7-6.2-8.2c-1.4-1.7-3.3-7.6-3.7-9.9
			c-0.4-2.1,0.3-4-0.3-6.2c-0.8-3-1.6-2.6-1.1-5.9c0.7-4.5,4.1-8.7,5.9-12.8c2-4.5,3.8-9,5.8-13.6c4.1-9.4,11.3-11.7,20.4-15
			c3.8-1.4,7.8-2.6,8.7-7c0.7-3.7-1.7-7.3-1.8-11.1c-0.3-8.9,2.8-17.1,1.3-26.1c-0.6-4-1.8-7.7-1.3-11.9c0.4-3.7,4.2-6.7,6.5-9.8
			c2.4-3.2,4.8-5.5,8.2-6.9c4.6-2,8.8-0.5,13.5-1.1c9.7-1.3,7.9-10.7,7.8-18c0-1.8-0.5-4.3-0.2-6.1c0.7-3.5,3.4-5.5,5.2-8.4
			c2.6-4.2,3.6-5.2,8.3-7.1c2.1-0.7,4.1-1.7,6.1-2.9c2.2-1.9,1.8-3.9,3.3-6.2c2-3.2,7.6-6.8,11.6-7c10.6-0.7-6.8,15.5-6.4,19.5
			c2.8,1.7,6.8-2,9.4-2.7c2.6-0.8,5.4-1.3,8-2c3.1-0.8,6-0.8,8.3-3.2c2.8-2.9,1.3-2.6,5.6-3.3c7.8-1.2,13.3-5.5,19.4-10.3
			c5-3.9,5.7-8,4.6-14.1c-4.8-0.6-12.1,5.2-16.3,7.5c-1.6-5-7.2-9.3-11.8-10.9c-2.4-0.8-3.9-1.4-6.4-1.7c-2.8-0.4-5.7,1.1-7.5-1.8
			c-1.4-2.2,0.1-5.6-0.3-8c-0.6-3.9-1.1-3.2-5.1-3.2c-5,0.1-10-0.8-14.6,1.5c-3.4,1.7-6.7,6.1-10.8,4.8c5.5-7.2,11-19.6,20.3-22.5
			c3.7-1.2,8-0.4,11.9-1.4c4-1,7.2-1.9,11.3-2.1c6.4-0.2,13.3,0.8,19.7,0.1c8.7-0.9,18.1-7.3,24.8-12.5c0,7.5-2.7,18.1-9.7,22
			c-3.6,2-10.3,3.9-11.7,8c4.5,1.3,9.6-0.4,14.1,0.7c1.9,0.5,5.3,1.3,7.1,2.4c3,1.8,3.1,5.6,5.1,7.9c1.4,1,2.8,1.9,4.2,2.7
			c1.3,1.5,2.5,3.1,3.6,4.8c3.5,2.6,9,3,13.2,3.1c7.2,0.2,16.7,1,18.1-8c1-6.4-2-12.5-7.1-16.3c-5.7-4.2-7.2-6.5-9.4-12.9
			c-1-3-2.6-5.6-3.8-8.6c-1.5-3.9-1.2-7.6-1.1-11.8c0-6.9,1-12-4.8-16.2c-2.7-2-4.8-4.2-8.3-4.7c-5.2-0.6-11,0.1-16.3,0.1
			c-9.2,0-4.3-9.1-6.4-14.5c-1.5-3.7-4.7-2-8-3.8c-4.9-2.7-4.1-6.1-5.5-10.7c-1.1-3.7-4.2-6.9-5.9-10.3c-1.8-3.7-2.2-8.1-4.7-11.5
			c-1.9-2.5-4.5-3.1-6.7-5.1c-2.6-2.4-2.7-4.9-3.5-7.8c-0.5-1.7-1.1-2.6-1.8-2.8c0.3-1.2,0.4-2.4,0.2-3.6c-0.1-3.2-3.1-5.9-3.2-8.4
			c-0.2-5.3,2.4-1.9,6.4-3c6.3-1.8,6.6-12.8,1.5-16.1c-2.6-1.7-6.2-1.5-6.7-5.2c-0.8-5.5,4.3-2.9,7.3-1.8
			c6.2,2.3,19.9,10.8,23.7-0.3c2-5.7,0.4-15.4-4.6-19.3c-3.3-2.5-9.9-3.7-14-4.5c-4.2-0.8-8.5,1.3-10.3-3.6
			c-2.8-7.5,8.2-10.8,3.1-18c-3.2-4.4-8.1-4.6-12.9-6.1c-4.8-1.6-10.5-3.4-15-5.7c-0.6-3.5,8.8-10.3,11.6-11.6
			c7-3,15.3-4.1,22.5-6.5c7.4-2.5,15.3-2.8,23-2.8c10.6,0,21-1,31.1,2.1c4.9,1.5,5.4,1.1,7,6c1.2,3.7,1.4,6.5,0.8,10.3
			c-0.7,4.2-2,4.3,2,6.5c2.8,1.5,5.3,3.3,8.2,4.5c5.3,2.2,15.2,0.3,11.2,9.8c-0.8,1.9-3.5,3.3-4.3,5.2c-0.9,2.3-0.3,5.7-0.3,8.2
			c0,4.4-1.3,11.4,0.2,15.6c1.1,3.1,4.5,7.2,6.3,9.9c2.4,3.7,4.6,6.3,6.1,10.5c1.4,3.8,2.4,5.8,4.9,9c2,2.5,3.4,6.5,5.6,8.7
			c6.1,6,14.1-5.2,20.9-1.1c2.9,1.7,4.1,6.8,6.8,8.9c2.8,2.2,6.3,3.1,9.8,3.6c3.8,0.6,7.5,0.3,11.2,1.6c4.3,1.5,5.2,3.1,7.7-1.5
			c3.7-6.6,1.2-14.6,1.8-21.7c0.4-3.8,2.5-7.7,3.9-11.3c1-2.8,0.7-4.9,1.3-7.7c5.4-1.1,10.2-2,15.8-1.9c5.1,0,10.1,1.3,13.6-3.2
			c3.3-4.3-0.5-6.9-1.4-11.6c-1.2-5.8,3.5-8.6,8.2-11.4c2.1-1.2,4.2-1.6,6.1-3.1c2.3-1.7,3.6-4.4,6.1-6c4.6-2.9,11.5-4.2,16.8-5.6
			c2.1-0.6,9.4-3.2,11.2-1.4c1.4,1.4-0.1,5.5-0.5,6.6c-1.3,3.7-2.4,7.2-3.5,11c4.1,1.9,7.6-6.9,9.2-9.7c3.1-5.5,4.9-8,4.9-14.3
			c0-5.4-1.2-4.8-4.9-8.5c-1.7-1.6-2.3-3.1-3.6-4.9c-1.3-1.9-3.3-2.9-4.7-4.5c-2.2-2.7-3.1-6-3.2-9.8c-0.1-3.9,1.2-6.6-3.2-8.2
			c-3.9-1.4-9.4-1.7-5.2-6.9C1058.5,418.2,1063.4,416.7,1066.3,413.7z M803,545.4c3.5,1.1,2.5,6.8,6.4,8.8c2.2,1.1,4.7,1.4,7.1,1.3
			c-3.2,3.5-7,12.6-8.4,14.3c-3.5,4.3-11.1,5.3-11.8-1.5c-0.4-3.3,1.8-8.9-1.4-11.1c-2.8-2-9.6,0.5-13-0.5c-3.5-1-5.4-3.9-8.8-4.7
			c-4.8-1.1-9.6,1.7-14.2,1.6c-1.1-2.1-1.3-4.4-3.2-6c-2.7-2.3-8.8-2.6-12-1.7c-11,3.3-4.3,13-1.9,20.6c1,3.3,1.9,9.9,0.4,13.2
			c-1.5,3.5-5.6,5.5-8,8.3c-3.7,4.3-5,10-5.1,15.6c-0.2,2.9,0.4,5.7,1.7,8.3c1.4,2.8,5.2,5.6,5.3,9c0.2,7.7-10.6,10-15.1,14.2
			c-5.3,4.9-1.7,12-4.7,18c-1.7,3.3-2.9,3.5-6.2,5.2c-3.4,1.8-5.7,5.1-8.6,1.3c-3.2-4.2-3.1-14.6-3.2-19.8c0-3,0.5-6.1-0.1-9
			c-6.4-2.1-16.1-0.3-22.8-0.3c-0.9,0-5.1,0.7-6.1,0c-2.4-1.8-1.6-8.6-2.1-11.3c-7-1.5-17.8,3.4-22.8-3.3c-2.4-3.3-2.3-9.4-1.2-13.3
			c1.4-5,7.6-9.8,11.4-12.9c5.5-4.4,11.3-7.6,15.8-13.2c2.6-3.2,4.7-6.7,6.9-10.2c1.9-3.1,3.1-6.2,6.7-7.4c3.4-1.1,11,0.1,14.2,2
			c3,1.8,4,5.4,7.2,7.2c1.9,1,8.9,3.6,10.9,1.7c2.2-2.1,1-8.8,1.8-11.3c1-3.3,4.3-4.6,5.1-8c1.2-5.7-1.3-12.3-0.2-18
			c0.8-4.5,5-5.6,8.8-7c5.1-1.9,3.9-1.5,4.3-6.4c0.3-3.5,2.4-7.1,4.9-9.5c3.2-3.2,6.1-3.7,9.9-4.8c2.4-0.7,5.9-1.9,7.8-3.6
			c2.6-2.4,2.1-7.3,4.8-9.7c6.1-5.3,13.2,3.5,16.7,8.4c2.1,2.9,4.3,4.1,3.4,8.2c-1,4.7-4.4,4.9-7.9,6.9c-2.9,1.7-4.3,4-6.6,6.3
			c-4.2,4.1-10.2,4.3-15.5,7c-6.7,3.3-4.3,8.6,2.3,10.6c8.7,2.6,18.7-3.2,27.3-4.2c2.3-0.3,6.5,0.8,5,4.7c-1.1,2.7-7,1.9-6.3,6.2
			C788.1,547.8,796.7,543.3,803,545.4z"/>
		<path class="st1" d="M1085.5,494.9c-4-1.3-10.4,5.4-12.9,7.8c-2.6,2.5-4.1,5.4-6.2,8.2c4.5,1.6,8.4-1.5,12.7-2.7
			c2.4-0.6,4.2-0.5,6.4-1.5c1.7-0.8,2.7-1.8,4.6-1.9c0.2,0.9,0.4,1.8,0.6,2.8c3.6-0.1,3.3,3.7,6.1,5c1.2,0.4,2.5,0.4,3.7,0.2
			c3.3,0.5,3.8,1.2,6.2,3.4c3.9,3.5,5.7,4.1,11.1,2.1c3.3-1.3,4.9-2,8.4-2.1c6.1-0.1,12.3-0.1,18.4,0c5,0.1,6.4-0.5,10.6-3.2
			c5.4-3.5,8.5-4.8,8.6-11.6c0.2-6.7,0.6-13.5-7.8-14.7c-10.3-1.5-15.3,10.1-24.9,10c-4.3-0.1-4.6-1.9-6.9-5
			c-2.9-4.1-7.5-4-12.5-3.3c-3.3,0.4-5.6,2.2-8.4,3.7c-2.5,1.3-6.3,2.1-8.3,3.8C1095.2,495.5,1085.4,495.2,1085.5,494.9z"/>
		<path class="st2" d="M1454.8,1172.8c-3.2,0.2-12.3,10.6-13.7,12.1c-4.1,4.4-8.1,8.8-12.1,13.3c-4.3,4.2-13.1,13.2-19.8,11.9
			c-4.3-0.8-6.9-2.2-11.5-2.1c-4.3,0-9.6,1-13.7-0.4c-4.5-1.5-8.4-4-13.3-5c-6.8-1.5-8-3.6-8.2-10.7c-0.1-4.3-0.3-8.8,0-13.1
			c1-12.7,16.6-23.1,5.5-36.5c-3-3.6-4.8-4.1-5.7-8.7c-0.6-3.2,0.4-6.6-0.2-9.9c-0.9-4.6-1.5-8.1-1.5-12.9c0.1-9.4,1-17.8-5.3-25.7
			c-4.1-5.1-9.9-6.8-14.3-11.3c-4.5-4.6-5.2-14.8-11.5-17.4c-5.9-2.5-12.2,1.4-17.5,3.2c-6.9,2.3-11.8,3.1-17.6-1.5
			c-3.9-3.1-6.1-4.5-11.2-5.5c-5.2-0.9-9.6,0.5-14.1-2.3c-2.5-1.6-3.8-3.4-5.8-5.4c-2.2-2.2-3.6-2.9-5.8-4.7
			c-10.7-8.4-3.1-21.6-5.9-32.5c-8.1-1.6-17.6,2.1-23-6.1c-1.9-2.9-3.2-7.6-3.8-11c-1.3-7.3-1.5-14.7-2.8-22.1
			c-1.1-6.2-2.8-11.3-3.4-17.6c-0.6-6.4-5.6-8.3-3.7-15.4c1.1-4,4.2-6.8,5.3-10.8c0.5-2.3,0.6-4.6,0.3-6.9
			c0.2-5.9-2.3-10.1-2.2-15.9c0-2.6,0.2-5.2,0.5-7.8c-0.5,1.3-0.9,2.7-1.2,4.3c-0.4,2.8,0.1,3.9-1.4,6.5c-2.3,4-7.3,6.5-11.3,8.2
			c-7.8,3.3-5.1,8.1-3.9,15.1c1,6.4-0.1,9.8-3,15.5c-1.7,3.3-4.1,10.2-2.7,13.7c3.4,8.3,13.2,10.9,12.8,20.9
			c-0.3,7.5-7.7,13.1-10.5,19.9c-1.8,4.3-1.8,10.3,0.1,14.6c2.2,5.2,5.1,9.4,9.1,13.3c4.6,4.5,6.2,7.8,6.1,14.3
			c0,3.6-1.4,10.3,1.1,13.2c1.4,1.7,4,2.2,5.7,3.4c3.8,2.7,7.8,5,11.5,7.7c5.3,3.9,9.9,11.3,11.1,17.8c0.4,2.2-0.3,3.3,1.1,5.3
			c1.3,2.1,3.8,2.8,5.4,4.8c5.8,0,22.9,2.3,27.6-1.9c1.4-1.3,2.9-5.9,5.1-6.2c2.7-0.4,3.4,2.1,5.2,3.6c4.3,3.7,12.4,4,17.8,2.5
			c2.3-0.6,4.5-2.3,6.5-3.4c1.1-0.6,3.5-2.9,4.7-3c4.5-0.3,7.7,7.2,8.7,10.4c1.6,5,0.6,9.4,1.1,14.4c0.2,1.7,0,3.4,1.2,4.9
			c1.8,2.3,2.1,1,5,1.4c5.8,1,8.8,7.5,9.9,13.1c0.4,2.3-0.1,4.4,0.2,6.5c0.4,2.4,1.9,3.9,1.9,6.5c0,5.1-4.4,8.4-5.2,13.2
			c-0.6,3.6-0.2,8.6,0.5,12.1c1,5.1,0.4,10.7,1.6,15.6c1,4.2,2.8,10.2,1.1,14.7c-2.6,6.8-11.9,8.9-17.1,12.5
			c-6.2,4.2-7.2,9-9.3,15.6c-1.7,5.4-2.1,9.5-6.3,12.9c-3.3,2.7-5.5,4.5-9.6,5.9c-3.4,1.1-5.9,2.2-7.9,5.4
			c-2.2,3.5-3.3,7.8-3.5,11.8c-0.2,4-0.5,8.8,0,12.8c0.6,4.5,1.7,8.3,1.7,13.1c0,8.6-1.6,16.7-8.7,22.5c-3.7,3.1-9,3.8-13,6.7
			c-5,3.5-6.8,5.5-9,11.1c-0.6,1.5-1.3,3.9-2.3,5.3c-2.6,3.5-7.6,4.1-10.9,6.9c-7.9,6.8-14.2,16.6-16.3,27.1
			c-0.5,2.6-1.1,7.5-0.5,10.2c1.9,8.1,14.5,3.6,19.2,1.3c5.5-2.7,15.1-11.1,21.9-9.7c2.3,0.5,3.2,2.4,5.4,3.2
			c4,1.4,8.6-0.1,12.4-1.3c2.5-0.8,4.8-1.5,7.1-2.1c68.2-51.2,123.7-118.2,161.3-195.6C1455.9,1172.8,1455.4,1172.8,1454.8,1172.8z"
			/>
		<path class="st2" d="M1461.8,746.9c-4.3-1.2-9.1-1.4-12.7-4.6c-5.1-4.5-8.7-14.3-16.3-15.5c-4.7-0.7-10.6,2.1-15.6,2.2
			c-3.8,0-3.6-0.2-6.2-1.9c-1.9-1.2-3-2.9-5.4-3.6c-1.6-0.4-4.1,0.2-5.4-0.7c-1.7-1.2-2.4-4.3-4.2-5.7c-5.4-4.1-17.3-2.3-23.6-1.4
			c-7.8,1.1-15-0.1-19.5,6.9c-2,3.2-3.5,6.7-5.4,10c-3.1,5.1-7.3,9.1-10,14.4c-5.8,11.1-13.7,18.9-27,19.1c-6.4,0.1-8.7-1.4-8-7.9
			s3.8-9.2,8.3-13.2c4.8-4.3,13.4-4.8,13.3-12.2c-0.1-4.7-3-8.4-4.5-12.8c-1.1-3.3-2.7-6.9-3.5-10.5c-0.7-3,0.8-6.3-0.1-9.4
			c-1.2-4-4.9-7.2-7.5-10.2c-4.4-5-32.9-40.8-15.7-41c4.8,0,8.9,2.8,13.7,2.1c5.8-0.9,14.8-3.2,19.7-6.4
			c10.7-6.9,17.7-21.3,21.3-32.8c0.7-2.2,0.9-3.6,1.8-5.9c1.7-4.2,2.6-7.9,2.1-12.6c-1.1-9.9-9.7-12.8-17.8-16.4
			c-5.1-2.3-8.1-7.5-12.9-9.5c-3.7-1.5-7.9-0.1-11.9-1.9c-3.8-1.7-7.1-5.3-9.7-8.4c-2.8-3.3-3.5-7.8-6.2-11.1
			c-4.5-5.4-11.7-2.9-17.8-3.2c1.6,1.7,2.8,3.6,3.2,5.8c0.8,4.6-4.6,6.6-3,11c1,1.8,2.6,3.1,4.7,3.6c3.4,1.9,6.9,4.1,9.7,6.9
			c4.1,4.2,6.6,10.1,10.4,14.4c3.5,3.9,9,4.3,12.9,7.7c2.9,2.5,5.2,6.1,8.5,8.3c1.6,0.2,3,0.7,4.3,1.7c1.4,1.5,1.9,6.2,2,8.1
			c0.1,5.2-3.2,10.6-7.8,13.1c-5.6,3-10.7,2.3-15.8-1c-2.7-1.8-1.4-2.9-3.9-0.5c-1.2,1.2-1.1,3.4-2.3,4.7c-3.4-3.1-5.3-8.9-7.8-12.8
			c-2.2-3.4-5.5-8.3-8.4-11c-4.5-4.2-10.3-4.1-15.4-6.7c-5.3-2.8-7.6-9.7-10.2-14.6c-3.7-6.8-9.3-12-16.6-14.4
			c-5.3-1.8-8.3-4.3-10.2-9.4c-2.4-6.5-13-15.3-20.8-12.2c-4,1.6-10.8,11.7-10.4,16c0.6,5.7,11.7,3.3,14.3,8.3
			c3.3,6.4-6.4,12-0.2,18c2.8,2.7,10.3,4.4,14.2,4.9c3.8,0.5,6.1,0.9,9.8,2.7c3.4,1.7,4.7,3.9,6.5,7.3c2.5,4.9,6.8,8.4,6.6,14
			c0.2,1.3,0.1,2.5-0.3,3.8c-0.9,1.5-3,1.1-3.2,3.1c-0.4,3.2,3.8,6.2,1.8,10c-1.9,3.5-8.8,4.4-11.5,1.6c-3.3-3.4-0.2-7.8-1.4-11.7
			c-0.9-2.9-3.7-4.6-6.2-6c-3.7-2.2-4.7-3.6-7.3-7c-3.8-4.9-10.2-9.8-15.9-4.6c-2.3,2.1-7.2,9.7-6.8,13c0.6,4.1,5.6,4.4,7,8
			c2.4,6.4-4.3,17.8,3.4,22.6c2,1.2,6.9,0.2,9.1,0.3c4.1,0,6.6-1.1,10.5-1.7c5.4-0.9,5.6,3.1,9.8,4.8c3.3,1.3,8,0.3,10.8-1.3
			c2,4.7-1.6,7.8,3.9,11c4.3,2.5,8.7,0.6,12.8,1.9c3.5,1.1,3.1,5.2,3.2,8.2c0.2,5.7-1.1,8.7,4.8,11.1c4.4,1.8,12.6,1.4,14.6,6.5
			c1.3,3.4-0.3,6,1.6,8.9c3.4,5.2,9.2,6,10.1,12.8c0.3,2.1-0.1,4.5-0.1,6.6c0.1,2.7,0.8,4,1.3,6.5c1.1,4.9-2.5,6.5-6.8,6.6
			c-7.4,0.2-14.9-0.2-22.3-0.1c-5.1,0.1-11,1.5-14.8,5.3c-2.6,2.6-2.3,10.8-1.6,14.4c0.5,2.4,1.7,3.5,1.4,6.1
			c-0.2,1.7-1.2,3.4-1.4,5.2c-0.6,5.4,2.7,7.9,3.4,12.7c0.6,4.1-0.9,8.6-3.3,11.8c-2.2,2.9-10.9,6.1-11.4,9.8s5.7,9.2,8.8,10.3
			c5.2,1.8,7.7,1.2,12.3-1c5-2.3,8.9-0.6,11.6,4.4c1.5,2.8,2.9,11.3,1.8,15.5c0.6,0,1.3,0,1.9,0c4.4,0,7.5-0.4,11.7-1.5
			c4.4-1.1,3.1-1.3,6.1-4.4c1.6-1.7,3.5-3.3,5.4-4.8c-0.8-0.1-1.4-0.3-1.6-0.5c-1.7-1.9-0.6-5.2,0.5-8c2.3-5.4,6.3-9.8,11.5-13
			c6.1-3.7,15.9-3.1,21.3-8.5c6.6-6.5-1-19.1,9.7-22.7c4.6-1.6,10.3-0.1,14.6,1.4c4.4,1.6,8.4,1.8,12.9,1.7c0.9-3.5,0-35.9,8.1-30.8
			c0.9,0.6,2.7,3.6,3.5,4.4c1.8,2,3.5,4.1,5.1,6.3c3,3.8,5.3,7.4,8.9,10.5c5.9,5.2,7.6,11.1,11.9,17.4c2.2,3.2,5.9,4.9,7.5,8.4
			c2.3,4.7-2,10.7-3.8,15.2c-2.5,6.1-5.3,11.7-5.1,18.5c0.1,3.7,1.9,12.2,6.7,12.1c1.5,0,7.4-6.5,8-8.1c0.9-2.1-0.7-4.9,0-6.7
			c0-1.2,0.7-1.8,2-1.9c2.4-2.4,6-2,8-5c2.6-3.9,2.5-13.5,1.6-18c-0.8-4.2-3-5.1-5.5-8.3c-2.8-3.7-4-8.5-6.3-12.5
			c-3.5-6.1-7.5-12.3-9.1-19.2c2.4,0,7.4,2.7,9.7,3.7c4.1,1.8,6,4.8,9.4,7.1c3.1,2.1,7.7,1.9,9.6,5.6c1,1.9,1.7,7.3,1.9,9.4
			c0.3,2.5-0.7,5,0.2,7.4c1.1,1.1,2,2.3,2.7,3.6c0.9,2.7,0.9,6.5,1.5,9.4c1.1,5.4,1.8,10.6,4.1,15.7c1,2.2,2.4,4,2.9,6.3
			c1.9,9.3-3.3,20.5,1.8,29.1c2.7,4.6,7.3,7,10.9,10.6c1.4,1.4,1.9,3.1,3.1,4.5c4.7,5.2,18,4.8,24.7,4.8c3.6,0,6-0.4,8.2-1.7
			c-5.3-38.3-14.6-75.4-27.5-110.7C1472.6,750.6,1467.1,748.4,1461.8,746.9z"/>
		<path class="st2" d="M990.7,1323.5c-0.1-8.3-1.9-22,6.5-27c1.3-0.8,3.3-2,4.8-2.5c3.3-1.1,6.9,0.7,10.1-0.2
			c3.8-1.1,5.7-8,6.5-11.8c1-5-1.7-9.7,2-14.1c2.6-3.2,6.3-3,9.4-5.1c5.4-3.7,5.5-8.9,5-14.9c-0.2-2.5-1.4-4.1-1.8-6.5
			c-0.4-2,0.1-4.7,0.1-6.8c-0.1-10.4,7.7-13.4,13.2-20.9c1.4-2,1.8-4.1,3.1-6.2c1.9-2.9,4.7-5,6.6-8c4.3-6.7,4.9-12.6,4.9-20.2
			c0-3.9-0.7-6.2-1.3-10c-0.7-4.6,1.2-8.3,2.4-12.6c-1.2-0.9-2-2.4-3.2-3.2c-0.3-0.2-0.7-0.4-1-0.5c-0.7,1.2-1.3,2.4-2,3.6
			c-2.6,4.9-6.3,9.5-8.8,14.4c-3.4,7.1-3.7,12.2-3.7,20c0,5.6,0.9,10.2-2.3,14.8c-2.7,3.8-6.5,6.6-9.4,10.3c-2.7,3.5-4.9,7.7-7.8,11
			c-4.3,4.9-11.7,9.1-17.6,12c-7.1,3.5-9.3,7.1-14.2,13.6c-2.9,3.9-4.9,8.2-3.5,13.3c0.8,2.8,2.1,3.7,3.4,6.2
			c-1.7,3.4-8.4,6.9-11.2,8.6c-5.8,3.6-13.5,6-18.8,10.4c-5.1,4.3-7.6,11.2-12.2,16c-2.8,2.9-4.3,4.8-6.3,8.3
			c-1.3,2.2-1.7,5.6-5,5.2c-4.4-0.5-3.8-10.5-7.8-11.4c-1.3,3.2-1,8.4-1.7,11.9c-1,5-2.4,9.6-4,14.4c-2.5,7.4-7.5,11-11.7,17.1
			c-2.9,4.2-3.6,10.3-6.7,14.9c-1.1,1.6-4.7,8.1-7.4,8.2c-8.2,0.1-5.8-16.1-5.8-20.5c0-16.4-0.9-34.6-9.7-49.3
			c-2-3.4-4.9-5.2-6.5-8.9c-1.6-3.8-1.2-7.4-1.3-11.3c-0.2-7-4.8-11.2-6-17.6c-1.4-7.6,3.7-14.6,5.6-21.4c0.8-2.4,0.9-4.8,0.2-7.2
			c-1.6-1-3.4-1.2-5.2-0.5c-3.7-1-3.2-1.5-5.9-4c-8.8-8.5-21.4-0.4-31.5,2.6c-6.8,2-15.2,0.4-19.1-6.2c-5.7-9.6,0.7-21.2-8.6-29.5
			c-3.1-2.7-9-4.1-11.5-7.2c-1.9-2.4-0.7-1.1-1.7-4.1c-1.2-3.6-0.8-7.2-2.8-10.6c-1.8-3-4.9-5-7.5-7.2c-6.2-5.1-9.1-9.5-12.6-17
			c-2.8-6-7.1-11.7-6-18.5c1.2-7.2,5.7-11.3,5.6-19c-0.2-6.7-3.7-9.5-5.5-15.5c-1-3.2-0.3-6.8-0.3-10.1c-0.1-5-0.9-9.5-1.5-14.4
			c-0.8-6.8-0.7-14.6-10-12.3c-9.2,2.3-16.7,9.3-26.7,9.7c-6,0.2-9.5-2.7-14.5-5.5c-2.7-1.5-4.8-3.8-7.8-4.6
			c-1.8-0.5-4.4,0.4-6.3,0.2c-4.9-0.5-10-2.9-14.7-4.5c-4.1-1.4-8.2-2.2-12.1-3.3c-4.6-1.2-8.2-6.2-10.7-10.2
			c-4.2-6.7-7.8-12.2-14.6-16.7c-4.2-2.8-8.2-1.7-12.1-4.7c-5.1-3.9-10-6.7-16.6-7.5c-6.3-0.8-12,1-18-1.3
			c-5.8-2.2-9.7-1.7-15.6-0.6c-5.6,1-9.4,3.7-15.2-0.3c-4.9-3.3-5.3-8.8-8.1-13.4c-1.7-2.8-5.3-10-7.7-11.3s-5.3-0.9-7.8-2.6
			c-2-1.3-4.5-3.5-5.9-5.4c-3.2-4.4-6.3-11-7.3-16.3c-0.8-4.2,1.4-11.2-0.6-14.9c-1.9-3.6-5.4-1.5-8.7-1.8c-9.7-1-6.3-11.1-6.6-18.2
			c-0.3-9.4-6.2-18.8-9.9-27.1c-3.9-8.5-2-20.2-7.7-27.7c-3.9-5.3-9.1-6.9-9.9-14.4c-0.8-6.9,3.1-17.5-2.2-23.3
			c-2-2.2-5.7-2.5-7.1-5.5c-1.6-3.4-0.3-9.4-0.3-13c0-9.2,2.6-16.7,3.6-25.7c0.7-6.2-0.4-9.6-4.2-14.2c-4.1-5-3.5-6.7-3.4-13.6
			c0.1-9.6-0.3-19.1,0.5-28.7c0.1-1.3,0.4-3.2,0.8-5.2c-18.1,44.2-30.4,91.3-36.2,140.4c1.8,0.3,3.7,0.3,5,2.3
			c2.6,3.8,0.4,12.1-1,15.9c-2.8,7.6-5.7,15.5-1.3,23.3c0.7,1.3,2.8,5.1,4.5,4.8c1.8-0.3,3.1-6.5,5.4-7.7c2.9,3.9,2.9,8.6,4.8,13
			c2.9,6.9,5,14.2,11,19.2c12,10.1,19.8,21.8,26.6,35.9c1.4,2.9,4.1,13.5,8.1,14.5c4.8,1.3,3.2-13.9,2.5-16.2
			c-1.3-4.7-2.9-9.7-4.2-14.5c-0.7-2.9-0.2-5.7-0.7-8.7c-0.5-2.6-2.7-5.1-0.6-7.3c2.7,1.3,2.8,4.2,4.2,6.6c1.4,2.4,3.1,4.1,4.9,6.1
			c4.8,5.2,6.7,9.9,8.6,16.7c1.6,5.7,0.8,10.5,3.2,15.9c2.8,6.1,1.2,14.5,4.8,19.9c2.4,3.5,8.8,6.5,12.6,7.7
			c8.6,2.5,17.3,5.8,26.3,6.9c14,1.6,27.8,6.7,42,6.6c5.4-0.1,11.7-1,16.8,1.2c4.6,2,9.6,3.6,14.2,5.7c6.2,2.8,12,8.4,17.2,12.7
			c5.5,4.4,7.6,11.4,13.8,14.9c6.1,3.4,14.3,2.2,19.9,6.3c2.7,2,4,5.7,6.3,8.1c3.6,3.8,5.7,3.1,10.7,3.9c6.2,1,11.6,2.8,18,2.9
			c6.3,0,7.3-0.2,8-6.4c3.2-0.8,8,7.6,9.6,9.9c4.4,6.4,4.9,11.8,4.9,19.3c0,3.1,0.6,6.6-0.2,9.7c-1.1,4.7-4.8,8.4-7.3,12.4
			c-3.2,5.3-8.4,12.7-6.9,19.1c0.6,2.7,2.1,5.1,2.6,7.8c0.7,3.2,0.2,6.3,0.3,9.6c0.2,6.3,3.7,11.7,6.9,17.1
			c6.8,11.4,21.7,12.7,30.7,22.2c2.3,2.4,3.2,6,4.5,8.9c1.2,2.8,2,3.4,3.7,5.6c2.9,3.8,3.8,8.9,8.1,12c4.6,3.2,11.2,3.3,16.5,5.1
			c9.5,3.2,18.7,4.8,27.7,9.4c6.1,3.1,7.7,8.3,8.1,15c0.5,7.5-0.2,15.2-0.1,22.7c0,5.7,2.6,8.8,6.5,12.9c6.8,7.2,14.2,14,19.4,22.5
			c4,6.6,7.3,13.7,8.9,21.2c0.9,4.5,2,9,2.9,13.4c0.7,3.7-0.9,7.8,0.2,11.5c1.5,4.6,3.7,8.1,4.5,13c0.9,5.8,4.3,11.2,6.2,16.8
			c1.7,5.3,4.2,9.3,7,14c2.6,4.2,6.4,4.8,9.7,8.9c4.2,5.1,10.5,7.4,14.8,12.7c4.2,5.1,8,8.9,13.3,12.6c3.7,2.6,6.8,5.5,10.7,7.8
			c4.2,2.5,7.3,2.5,12.2,2.4c3.5-0.1,9.1-1.6,6-6.7c-1.2-2-4.7-1.6-6.5-3c-2.2-1.7-3.9-6-4.9-8.5c-1.8-4.1-2.5-9.9-1.6-14.3
			c0.4-2.1,1.3-3.2,2.2-5.1c1.4-3.1,1.4-6,1.2-9.5c-0.2-4.3-2.7-7.1-3.4-11.3c-1-6.1,1.4-9.1,5.1-13.1c1.7-1.9,5.1-5.5,5-8.5
			c-0.1-4.2-7.2-5.5-6.7-9.6c4.5-1.2,14.5,0.8,17.7-3.3c1.4-1.8-0.2-6.1,0.1-8.1c0.6-3.4,2.1-7.3,3.3-10.6c2.6-6.8,5-8.9,11.1-12.6
			C990.1,1332.3,990.8,1330.6,990.7,1323.5z"/>
		<g>
			<path class="st2" d="M601.4,925.6c0.1,0,0.4,0.3,0.9,0.6v-0.1C602,926,601.7,925.8,601.4,925.6z"/>
			<path class="st2" d="M630.5,888.6c-3.1,3.7-4,8.9-9.5,9.9c-6,1.1-10.1-0.9-14.3,5.6c-1.4,2.3-2.1,4.7-2.4,7.3
				c3.3-4.7,12.4,0.4,16.9,1.3c3.8,0.8,7.8,0.3,11.6,0.3c1.9,0,5,0.6,6.8,0.1c8.9-2.3-3.8-7.5-6.6-8.8c0.3-1.1,1.2-1.5,2.6-1.1
				c1-0.1,2-0.2,3-0.4c2.6-0.9,5.1-1.8,7.7-2.7c2.3-0.5,4,0,6.3-0.2c2.7-0.2,5.2-1.6,8-1.8c6.1-0.4,15.9-2.2,17.9,5
				c0.9,3.2,0.9,6.9,1.6,10.2c1,4.6,2.1,6.5,5.3,9.8c3.1,3.1,5.1,4.3,9.8,4.5c2.3,0.1,7.9,0.9,9.9-0.3c3.2-2,1.6-9.6,1.5-12.6
				c-0.2-5.5-3.2-4.7-6.2-8.2c-1.4-1.7-3.3-7.6-3.7-9.9c-0.4-2.1,0.3-4-0.3-6.2c-0.8-3-1.6-2.6-1.1-5.9c0.7-4.5,4.1-8.7,5.9-12.8
				c2-4.5,3.8-9,5.8-13.6c4.1-9.4,11.3-11.7,20.4-15c3.8-1.4,7.8-2.6,8.7-7c0.7-3.7-1.7-7.3-1.8-11.1c-0.3-8.9,2.8-17.1,1.3-26.1
				c-0.6-4-1.8-7.7-1.3-11.9c0.4-3.7,4.2-6.7,6.5-9.8c2.4-3.2,4.8-5.5,8.2-6.9c4.6-2,8.8-0.5,13.5-1.1c9.7-1.3,7.9-10.7,7.8-18
				c0-1.8-0.5-4.3-0.2-6.1c0.7-3.5,3.4-5.5,5.2-8.4c2.6-4.2,3.6-5.2,8.3-7.1c2.1-0.7,4.1-1.7,6.1-2.9c2.2-1.9,1.8-3.9,3.3-6.2
				c2-3.2,7.6-6.8,11.6-7c10.6-0.7-6.8,15.5-6.4,19.5c2.8,1.7,6.8-2,9.4-2.7c2.6-0.8,5.4-1.3,8-2c3.1-0.8,6-0.8,8.3-3.2
				c2.8-2.9,1.3-2.6,5.6-3.3c7.8-1.2,13.3-5.5,19.4-10.3c5-3.9,5.7-8,4.6-14.1c-4.8-0.6-12.1,5.2-16.3,7.5c-1.6-5-7.2-9.3-11.8-10.9
				c-2.4-0.8-3.9-1.4-6.4-1.7c-2.8-0.4-5.7,1.1-7.5-1.8c-1.4-2.2,0.1-5.6-0.3-8c-0.6-3.9-1.1-3.2-5.1-3.2c-5,0.1-10-0.8-14.6,1.5
				c-3.4,1.7-6.7,6.1-10.8,4.8c5.5-7.2,11-19.6,20.3-22.5c3.7-1.2,8-0.4,11.9-1.4c4-1,7.2-1.9,11.3-2.1c6.4-0.2,13.3,0.8,19.7,0.1
				c8.7-0.9,18.1-7.3,24.8-12.5c0,7.5-2.7,18.1-9.7,22c-3.6,2-10.3,3.9-11.7,8c4.5,1.3,9.6-0.4,14.1,0.7c1.9,0.5,5.3,1.3,7.1,2.4
				c3,1.8,3.1,5.6,5.1,7.9c1.4,1,2.8,1.9,4.2,2.7c1.3,1.5,2.5,3.1,3.6,4.8c3.5,2.6,9,3,13.2,3.1c7.2,0.2,16.7,1,18.1-8
				c1-6.4-2-12.5-7.1-16.3c-5.7-4.2-7.2-6.5-9.4-12.9c-1-3-2.6-5.6-3.8-8.6c-0.6-1.5-0.9-3-1.1-4.5c-0.8-2-1.4-4-2.1-5.4
				c-2.7-5.3-3.6-3.1-9.3-3.8c-7.1-0.8-13.8-3.3-21.3-2.2c-4.8,0.7-8.8,4.9-13.8,4.2c-3.2-0.5-6-2.9-9.3-3.6
				c-4.6-1.1-7.9,0.4-12.2,2.1c-4.2,1.6-7.2,0.7-11.6,1.3c-4.2,0.5-7.4,2.3-11.7,2.1c-3-0.2-4.8-1.6-7.7-2.1
				c-4.9-1-9.6,2.7-13.8,4.6c-5.5,2.4-6.7,5.6-9.7,10.7c-1.5,2.5-3.8,10.3-6.2,11.9c-2.6,1.7-4.5-1.8-7.1-1.5c-0.8,3,0.2,5.9-0.2,9
				c-0.5,4.1-2.6,6.9-4.1,10.7c-2.8,7.2-2.9,18.3-1.4,25.9c1.4,7,3.9,13.3-2.4,18.1c-3.6,2.7-8.1,2.1-11.7,4.6
				c-2,1.4-6.5,6.8-7.4,9.1c-1.8,4.4,1.6,10.1-0.5,14.4c-1.2,2.5-8.5,6.2-11,7.1c-3.3,1.1-6.3,0.8-9.7,2.2
				c-3.9,1.5-10.3,3.2-13.8,5.7c-3,2.1-4.8,6.4-6.4,9.6c-3,6-1.8,13.1-1.8,19.7c0,10.1,1,23.3-5.8,31.5
				c-5.7,6.9-13.4,12.3-15.4,21.9c-1.4,6.8-0.6,12.7-4.1,18.8c-2.8,5-5.8,8.9-11.8,9.9C641.7,885.9,635.5,882.7,630.5,888.6z"/>
		</g>
		<path class="st2" d="M1075.6,455.7c-1.7-1.6-2.3-3.1-3.6-4.9c0,0,0-0.1-0.1-0.1c-1.5-0.2-3.2-0.2-5.1-0.1
			c-5.7,0.3-10.4,2.2-15.7,3.5c-5.5,1.4-7.1,0.1-11.7,4.3c-6.8,6.3-16.8,5.9-25.8,8.3c-7.7,2.1-13.9,9-21.1,12.8
			c-7.5,3.9-13.8,5.7-21.2,2.2c-4.4-2.1-5.2-2.4-10.6-1.5c-4.8,0.8-10.1,3-14.5-0.1c-7.2-4.9-7.3-16.8-11.9-23.4
			c-2.9-4.2-5.7-8-8.2-12.3c-3.9-6.8-7.3-16.2-15.5-17.8c-10-1.9-17.2,0.4-27.2,0.7c-3.6,0.1-7.7-0.8-11.2,0.2
			c-4.3,1.2-7,4.4-11.9,5.3c-6,1-12-0.4-17.9,0.2c-3.4,0.3-6.1,1.8-9.5,2.1c-5.4,0.5-11.2-0.1-16.7-0.1c-6.8,0-10.7,0.4-16.8,3.5
			c-2.3,1.1-4.2,1.7-5.7,3.8c-0.8,1-1,3.2-1.7,4c-4.1,4.3-12.4,1.8-17.5,4.3c-4.2,2.1-3.9,5.3-5.1,9.7c-0.9,3.2-2.1,6-2.5,9.3
			c-0.4,2.9,0.6,4.9-1.7,7.4c-5.3,6-15.1,1.1-21.7,2.6c-6.2,1.5-6.2,9.1-11.6,11.5c-2.3,1-3.6,0.5-5.8,2.1c-2.6,1.8-4.4,5.2-5.8,7.9
			c-3.5,6.8-4.6,9.2-11.7,11.3c-6.9,2-8,3.7-11.6,10.2c-3.2,5.7-9.1,15.2-15.7,17.4c-5.4,1.8-10.5-0.9-16,2
			c-7.3,3.9-7.4,10.2-9.2,17.4c-1,3.9-1,4.5-4.2,6.2c-2.2,1.2-5.3,0.4-7.5,2.2c-5.8,4.7-9.3,17.5-11.7,24.4
			c-3,8.6-4.7,19.4,5.9,21.7c1.5,0.3,3.3,0.5,5.1,0.6c-1.5-3.4-1.3-8.5-0.4-11.9c1.4-5,7.6-9.8,11.4-12.9
			c5.5-4.4,11.3-7.6,15.8-13.2c2.6-3.2,4.7-6.7,6.9-10.2c1.9-3.1,3.1-6.2,6.7-7.4c3.4-1.1,11,0.1,14.2,2c3,1.8,4,5.4,7.2,7.2
			c1.9,1,8.9,3.6,10.9,1.7c2.2-2.1,1-8.8,1.8-11.3c1-3.3,4.3-4.6,5.1-8c1.2-5.7-1.3-12.3-0.2-18c0.8-4.5,5-5.6,8.8-7
			c5.1-1.9,3.9-1.5,4.3-6.4c0.3-3.5,2.4-7.1,4.9-9.5c3.2-3.2,6.1-3.7,9.9-4.8c2.4-0.7,5.9-1.9,7.8-3.6c2.6-2.4,2.1-7.3,4.8-9.7
			c6.1-5.3,13.2,3.5,16.7,8.4c2.1,2.9,4.3,4.1,3.4,8.2c-1,4.7-4.4,4.9-7.9,6.9c-2.9,1.7-4.3,4-6.6,6.3c-4.2,4.1-10.2,4.3-15.5,7
			c-6.7,3.3-4.3,8.6,2.3,10.6c8.7,2.6,18.7-3.2,27.3-4.2c2.3-0.3,6.5,0.8,5,4.7c-1.1,2.7-7,1.9-6.3,6.2c6.3,2.5,14.9-2,21.2,0.1
			c1.4,0.5,2.1,1.7,2.7,3.1c0.1,0,0.2,0,0.2-0.1c3.9-1,7.8,0.1,11.7-0.9c0.3-0.1,0.6-0.2,0.9-0.2c-0.9-1.9-2.2-3.6-2.2-5.2
			c-0.2-5.3,2.4-1.9,6.4-3c6.3-1.8,6.6-12.8,1.5-16.1c-2.6-1.7-6.2-1.5-6.7-5.2c-0.8-5.5,4.3-2.9,7.3-1.8
			c6.2,2.3,19.9,10.8,23.7-0.3c2-5.7,0.4-15.4-4.6-19.3c-3.3-2.5-9.9-3.7-14-4.5c-4.2-0.8-8.5,1.3-10.3-3.6
			c-2.8-7.5,8.2-10.8,3.1-18c-3.2-4.4-8.1-4.6-12.9-6.1c-4.8-1.6-10.5-3.4-15-5.7c-0.6-3.5,8.8-10.3,11.6-11.6
			c7-3,15.3-4.1,22.5-6.5c7.4-2.5,15.3-2.8,23-2.8c10.6,0,21-1,31.1,2.1c4.9,1.5,5.4,1.1,7,6c1.2,3.7,1.4,6.5,0.8,10.3
			c-0.7,4.2-2,4.3,2,6.5c2.8,1.5,5.3,3.3,8.2,4.5c5.3,2.2,15.2,0.3,11.2,9.8c-0.8,1.9-3.5,3.3-4.3,5.2c-0.9,2.3-0.3,5.7-0.3,8.2
			c0,4.4-1.3,11.4,0.2,15.6c1.1,3.1,4.5,7.2,6.3,9.9c2.4,3.7,4.6,6.3,6.1,10.5c1.4,3.8,2.4,5.8,4.9,9c2,2.5,3.4,6.5,5.6,8.7
			c6.1,6,14.1-5.2,20.9-1.1c2.9,1.7,4.1,6.8,6.8,8.9c2.8,2.2,6.3,3.1,9.8,3.6c3.8,0.6,7.5,0.3,11.2,1.6c4.3,1.5,5.2,3.1,7.7-1.5
			c3.7-6.6,1.2-14.6,1.8-21.7c0.4-3.8,2.5-7.7,3.9-11.3c1-2.8,0.7-4.9,1.3-7.7c5.4-1.1,10.2-2,15.8-1.9c5.1,0,10.1,1.3,13.6-3.2
			c3.3-4.3-0.5-6.9-1.4-11.6c-1.2-5.8,3.5-8.6,8.2-11.4c2.1-1.2,4.2-1.6,6.1-3.1c2.3-1.7,3.6-4.4,6.1-6c4.6-2.9,11.5-4.2,16.8-5.6
			c2.1-0.6,9.4-3.2,11.2-1.4c1.4,1.4-0.1,5.5-0.5,6.6c-1.3,3.7-2.4,7.2-3.5,11c4.1,1.9,7.6-6.9,9.2-9.7c3.1-5.5,4.9-8,4.9-14.3
			C1080.6,458.8,1079.4,459.4,1075.6,455.7z"/>
		<path class="st3" d="M817.5,1085.3c-0.1-0.6-0.1-1.2-0.2-1.8c-3.1-0.7-6.6,2.4-7.4,5.2c-1,3.5,0,3.8,2,6.5
			c5.9,7.7,14.2,16,11.1,26.7c-1,3.4-4.1,5.9-3.5,9.6c0.4,2.6,4.8,7,5.8,9.6c3.8,9.3,0.3,19,1.7,28.5c0.5,3.6,2.3,9.7,5.8,11.2
			c6.8,3,15.1-4.2,20-7.8c5.5-4,9.7-11.6,17.1-9.5c2.7,0.8,4.7,2.8,7.7,3.2c5.4,0.8,10.8-2.3,14.4-6c4-4,6.1-9.4,5.3-15.1
			c-1-7.3-7.6-10.3-11.9-15.5c-5.1-6.2-3.5-12.6-3.8-20.1c-0.2-7.4-3.7-8.8-9.3-13.1c-5.7-4.3-10.9-9.4-16.5-13.7
			c-3.7-2.8-9-4-11.7-7.6c-1.5-2.1-0.7-3.2-3.3-4.1c-1.4-0.5-4.4,0.1-5.9,0.1C830.1,1071.7,817.2,1077.8,817.5,1085.3z"/>
		<path class="st3" d="M922.7,1188.4c0.1-1,0.1-2.1,0.2-3.1c-3.3,6.2-6.5,13.6-7.6,20.7c-0.8,5-0.3,10.2-0.3,15.3
			c0,2.3-0.8,7.3,0.1,9.8c4.8,1.2,10.5-1.3,15,0.5c5.6,2.3,6.1,8.8,12.5,3.4c6.7-5.7,8.8-13.7,11.6-21.3c3.1-8.6,12.2-7.5,19.6-9
			c10.5-2.1,18.7-5.7,23.2-16.3c2.3-5.4,4.5-12,3.7-17.9c-2.4-18.4-25.9-4.1-35,0c-3.3-4.7-3.4-10.3-8.7-13.3
			c-4.1-2.3-15.1-3.9-18.8,0c-2,2.1-1.1,3.5-2.1,5.9c-1,2.3-4,5.4-5.6,7.4C927.5,1174.3,923.2,1183.4,922.7,1188.4z"/>
		<path class="st3" d="M570.3,635.6c-5.4,2.4-9.8,9.2-13.2,13.7c-4.2,5.4-11.8,12.8-13.8,19.6c-1.7,5.8-0.5,9.5-4.8,14.9
			c-4,5.2-10.1,9.6-15.5,13.3c-2.7,1.8-4.4,2.2-5.9,5.1c-2.6,4.8,1,7.1,1,11.6c0,6.1-5.6,10.4-7.8,15.6c-2.4,5.9-2.3,13.2-2.3,19.4
			c0,7.8,3.3,13.2,0,20.8c-1.4,3.1-3.4,4.8-0.6,8.2c1.7,2,3.5,2.5,6.3,2c5-0.9,9-5.9,12.7-9c3.8-3.2,7.9-5.6,12.5-7.2
			c9.6-3.5,19.4,1.7,27.9-5.5c4.5-3.9,7.7-8.7,12.9-11.8c3.3-2,5.7-3.6,8.8-5.9c5.5-4.1,10.9-5.5,16.9-8.4c4.6-2.2,6.4-4.5,11.7-4.9
			c7.5-0.7,14.7,1,21.3-3.8c6-4.4,11.7-13.2,15.3-19.7c3.9-7.2,9.8-14.4,10-22.7c0.1-5.9,2.2-15.2-4.5-17.7c-5.4-2-13-0.2-18.9-1.6
			c-6.5-1.5-10.6-1.8-13.7-8.3c-4.2-8.7-11.5-14.9-15.1-23.9c-3.3-8.2-0.9-16.4-2.5-24.6c-5.3-2.4-15.7,5.3-18.8,9.4
			c-2.2,2.9-3.8,6.5-6.2,9.3C578.9,629.5,577.6,632.3,570.3,635.6z"/>
		<path class="st3" d="M564.5,799.1c-7.1,1.3-9.7,5.5-13.6,11.4c-4.9,7.3-13.2,19.8-10.1,29.4c1.4,4.3,5.1,2.8,6.3,7.4
			c2.4,9.3-1.2,22-2.7,31.2c-1,6.6-2.4,13.2-1,19.9c0.7,3.2,0.2,12.3,2.9,14.2c3.8,2.7,5.8-2.4,8.2-5.6c7.3-9.8,14.4-19.8,21.3-29.9
			c7.2-10.5,19.3-16.6,27-26.7c6.5-8.7,1.3-20.4,6.6-29.4c3.8-6.5,10.8-11.6,16.9-15.7c8.3-5.5,16.4-11.7,23.2-19
			c7.6-8.3,12.8-24.6,10.1-35.9c-10.4-1.1-18.5,5.6-28.8,5.9c-11.6,0.4-22-1.5-33,3.2c-9.9,4.2-14.9,8.8-20.1,18.1
			C572.6,786.5,574.3,797.3,564.5,799.1z"/>
		<path class="st3" d="M768.9,588.9c-0.1,7-10.7,12-9.7,19.3c4.1,2.5,8.5,2.3,13.2,2.2c6.4-0.2,9.6,3.7,15.9,4
			c5.1,0.3,11.8,0.7,16.8-0.5c5.2-1.2,8.6-5.7,12.1-9.4c2.2-2.3,3.6-5.7,2.5-9.2c-1.9-5.9-10.9-7.1-16.1-9.8c-3.7-2-5.4-1.6-9.5-2.3
			c-4.2-0.7-7.5-2.9-11.7-1.3C779.7,579.1,768.7,593.1,768.9,588.9z"/>
		<path class="st3" d="M948,429.2c0-0.4,0-0.9,0-1.3c-0.1,8.5-1.9,18.7,2.2,26.6c1.6,3,5.5,9.5,9.3,10.1c4.1,0.6,8.2-4.8,11.4-6.3
			c5.4-2.6,3.3-0.3,8.1,1.8c5.8,2.6,13.1-2.1,17.6-5c3.9-2.5,8.4-4.2,12.3-6.7c5.4-3.5,8.1-7.9,11.1-13.3c2.2-4,10.6-12,8.1-17.6
			c-2.1-4.5-10-0.9-13.5-0.3c-4.8,0.8-9.7,1.2-14.5,1.9c-9.2,1.4-18.3,2.5-27.5,3.9c-3.7,0.5-7.2,0.5-11,0.4c-2.2,0-4.3-0.1-6.5-0.1
			c-2.3,0.4-4.6,2-6.9,1.8C948.2,424.5,948,429.8,948,429.2z"/>
		<path class="st3" d="M1308.1,863.3c-0.7-10.3-23,2.2-25.6,3.7c-8,4.5-22,10.2-19,21.5c1.4,5,6.3,12,3.1,17.3
			c-3.7,6.2-12.8,5.9-17.2,10.4c-3.1,3.2-1.2,7-1.6,10.9c-0.8,6.8-4.9,8.1,2.1,12.6c6,3.8,7.4,5.5,9.9,11.7
			c2.3,5.7,4.6,12.1,10.1,15.2c5.7,3.3,9,2.4,10.5,9.5c1,4.9-2.1,12.5,2.6,15.4c3.4,2.1,7.3,0.7,10.9,4c5.6,5.1,5.7,13.7,8.1,20.3
			c2,5.3,2.7,7.1,7.9,7.2c4.9,0.1,9.6,1,13.7-2.6c6.3-5.5,7.5-12.8,15.4-17c6.2-3.2,12.2-5.2,15.9-11.7c5.2-9.1,3-22.6,10.8-30.7
			c3.9-4.1,9.7-5.8,14.7-8.1c8.2-3.7,12.5-7.7,17.1-15.2c2.8-4.6,5.7-9.2,7.8-14.2c1.7-3.9,5.8-12.9,5.5-17.1
			c-0.6-9.5-15.8-14.8-23.9-15.9c-5.8-0.8-11.9,0.6-14.5-5.5c-0.5-3.1-1.1-6.3-1.7-9.4c-1.5-3.2-1.7-2.3-4.4-4.4
			c-7.9-6.1-0.2-14.7-4.2-21.6c-1.2-2.1-6-4.2-7.9-5.7c-5.6-4.3-6.8-6-13.1-2.6c-4.9,2.7-9.5,4.3-12.2,8.7c-2.4,3.8-3,7.9-7.2,10.2
			C1323.4,860.3,1307.2,865.2,1308.1,863.3z"/>
		<path class="st3" d="M1438.5,956.8c-10.1,3-20.1,7.6-28.5,14.1c-2.5,2.1-4.6,4.5-6.2,7.3c-1.3,2.2-2.1,4.5-2.6,7
			c-5.6,7-20.8,5.1-21.3,15.8c-0.2,5.7,3.1,11,2.5,17.2c-0.7,6.5-5.3,10.6-8.3,16.1c-3.3,6.2-3.9,19.2,2.4,23.7
			c5.3,3.8,10.6,4.8,13.6,11.4c2.7,6,2.6,13.4,4.1,19.7c2.8,12.1,7.3,24.2,7.4,36.6c0,6.7-2.3,11.1-3.6,17.5
			c-0.5,2.3-1.6,9.8-0.5,12.3c3.9,8.6,21.2-9.3,24.1-12.2c6.5-6.3,9.5-14.1,14.6-21.4c2.4-3.4,4.7-6.3,6.7-9.9c2.8-5.1,4.4-6,9.3-9
			c6.7-4.1,6.3-10.7,7.8-17.4c3-13.8,7.3-27.5,9.4-41.6c0.8-5.2,1.1-10.1,2.7-15.2c1.7-5.5,4.5-10.1,6-15.7c2.4-9.2,7.5-18,7.2-27.5
			c-0.2-9,0.5-16.3-4.2-24.4c-2.7-4.6-8-7.3-10.2-12.2c-1.3-3,0.1-9.7-3-11.5c-1.9-1.1-8.1-0.4-9.9,0.1
			C1453.6,938.9,1443.3,955.4,1438.5,956.8z"/>
		<path class="st3" d="M1436.6,915.9c-4.1,1.1-15.7,12.9-15.4,17.7c0.5,10.4,23.1-0.2,27.5-1.8c6-2.2,16.1-5.7,15.4-14.1
			c-0.6-7.3-8.4-4.4-13.6-5.9c-0.5-1.2-0.6-2.4-0.2-3.6"/>
		<path class="st3" d="M1341.2,658.9c-0.6,4.2-5.5,6.8-7.8,9.9c-3.8,4.9-9,15.3-7.5,21.7c3.1,1.5,6.4,2,9.9,1.6
			c3.8-0.1,7.6-0.2,11.3-0.3c1.6,0.5,2.4,1.6,2.3,3.3c3,2,5.3,0.1,8.8-1.1c4-1.4,9.8-4.4,14.1-3.7c2.3,0.7,4.4,2,6.1,3.7
			c5.3,2.9,9.8,4.7,15.9,5.6c6.7,0.9,11.8-1.4,18.1-1.4c4.5,0,7.1,6,12.1,3.4c5.7-3,4.8-14.3,2.6-19c-2.8-6.1-10-9.7-14-15.3
			c-2.8-4-4.5-7-5.8-11.6c-2.2-7.8-3.6-11.1-10.3-15.7c-5-3.4-7.5-7.1-11.1-12.1c-2.7-3.7-6.5-12.3-11.2-13.5
			c-5.2-1.3-6.5,3.1-7.8,7.6c-1.8,6.3-3.8,13.8-8.3,18.9C1355.2,644.6,1342,653,1341.2,658.9z"/>
		<path class="st4" d="M1438.5,974.3c-10.9-1.2-23.2,16.4-25.2,25.6c-1.4,6.5,1.4,11.2,2,17.3c0.6,6.9-8.2,13.9-5.3,19.6
			c5,9.9,19.6-0.5,24.4-4.1c5.7-4.2,8.7-10.4,13.3-15.5c4-4.5,11.9-9.8,14-15.7c1.3-3.9-0.1-8.2-1.2-11.8c-0.6-1.9-1.2-9.8-2.8-10.9
			c-3.4-2.2-7,2.2-11,2.3C1445.9,980.1,1439.3,975.3,1438.5,974.3z"/>
		<path class="st4" d="M1430.7,1063.9c-4.7,1.6-6.5,11.7-8,15.8c-1.4,2.5-1.9,5.2-1.8,8c1.9,3.4,6.8,3.4,9.8,2
			c5.8-2.7,13.7-13.7,15.4-19.6c0.9-3.3,0.5-8.3,0-11.7c-1.9-0.6-3.7-0.7-5.7-0.3"/>
		<path class="st4" d="M1312,882.8c-9.3,2.8-30.7,16.5-19.6,27.2c5.1,4.9,8.2,8.7,5.3,16.2c-1.2,3.2-7.9,7.7-7.2,11.2
			c12.6,11.2,24.7-13.2,35.1-14.1c3.6-0.3,7.1,3.5,11.1,2.7c4.3-0.9,8.8-6.9,10.9-10.5c4.4-7.4,5.2-20.6,1.5-28.4
			c-1.4-3-5.3-9.7-8.2-11.4C1335.3,872.3,1316.9,888.2,1312,882.8z"/>
		<path class="st4" d="M1323.7,956.8c-10.4,2.4-15.9,5.1-18.9,16.2c-1.5,5.8-2.6,10.5,3.4,12.8c8,3,11.9-2.5,16.5-7.6
			c2.6-2.2,4.8-4.7,6.5-7.7c2.5-2.7,0.7-0.9,4-2.5c7.6-3.7,13.9-6,13.7-15.1c-0.1-3.8-0.6-4.1,2.1-6.4c4.5-3.8,12.4,0.1,17.5-3.2
			c4.6-3,11.7-14,9.5-19.7c-1.7-4.3-10-4.7-13.5-3.6c-5.2,1.6-12.3,7.8-15.7,12c-2.3,2.9-2.8,6.9-5.7,9.4c-2.2,1.9-5.6,3.2-8.3,4.2
			c-2.3,0.8-7,0.5-8.9,1.8C1323.2,949.4,1326.9,956,1323.7,956.8z"/>
		<path class="st4" d="M840.9,1098.9c-2.9,0.3-3.5,8.3-3.8,9.8c-1.4,5.5-8.6,20.3-0.5,23.3c3.6,1.3,10,0.2,13.8,0.1
			c4.3-0.1,4.2-0.4,6.5-3.8c3.5-5.2,6.2-11.1,5-17.5c-0.4-2.4-2.2-8.2-3.8-10c-2.6-2.7-5.9-1.8-9.4-1.8"/>
		<path class="st4" d="M946,1184.6c-0.1-0.6-0.2-1.2-0.3-1.8c-4.7-1.6-9.9,11.3-9.5,14.9c5,2.8,16.4,0.6,21.6-0.9
			c4.7-1.3,9.3-3.4,13.5-5.8c6.2-3.5,3.9-8-0.4-12.8c-2.7-3-4.2-5-8.3-5.5c-6.1-0.7-10.4,0-16.6-1.8"/>
		<path class="st4" d="M601.4,781.6c-0.1-0.6-0.1-1.2-0.2-1.8c-5.4-1.6-14,11.2-15.3,15.7c-2.1,7.5,3.5,8.2,9.6,7.7
			c6.6-0.5,8.8-2.7,13.6-6.1c3.7-2.6,7.5-1.7,11.7-3.7c7.4-3.6,20.9-7.5,13.8-17.6c-9.4-13.3-21.5-0.5-33.2,0"/>
		<path class="st4" d="M572.2,834.1c-10.7-3.1-14.4,13.6-13.2,21c0.8,5.3,1.6,9.7,1.5,15.3c0,2.8-0.4,5.7,0.3,8.4
			c3.9,1.2,15.2-13.7,17.3-17.1c4.7-7.7,10-15.6,14.2-23.7c1.9-3.7,4.2-7.3,3.4-11.7c-0.7-3.8,0.7-3-3.8-4c-2.2-0.5-5.9,0.1-8.3,0.6
			C581.9,821.1,570.3,836.5,572.2,834.1z"/>
		<path class="st4" d="M552.8,697.9c-4.6-0.7-8.4,3.1-11.5,5.9c-6.5,5.7-15.4,14.7-17.6,23.5c-0.6,2.6-1.6,9.2,0.6,11.4
			c1.5,1.5,6.7,2.1,8.9,2.5c-1.5,2.4-5,6-7.6,8c3.4,4.3,10.9-1.2,14.4-3c8.2-4.2,15-6.8,22.1-12.8c5.1-4.3,7.8-5.8,14.1-6.2
			c4.6-0.3,10.6-3.9,13.3-7.8c2-2.8,5.8-12.7,4-15.8c-2.2-3.9-11.7-1.1-15.4-3.6c-1.9-1.2-5.9-4.4-7.4-6c-1.9-2-2.1-4.1-3.7-6
			C562.9,683.3,558.1,698.6,552.8,697.9z"/>
		<path class="st4" d="M580,655c-0.6,7.5-9,17.7-0.2,22.1c2.9,1.4,6.9-0.1,9.6,1.8c4.8,3.4,2.6,10.6,6.3,14.7
			c3.5,3.8,8.6,3.5,13.1,4.6c5.5,1.3,8.8,5.8,14,7.1c9.5,2.4,14.2-4.9,13.8-13.3c-0.5-10.7-6.6-18.5-16.8-21.8
			c-2.7-0.9-8.6-1.1-10.9-3.4c-2.9-3.1-1.3-8.4-3-12.1c-1-2.1-3.2-3.6-4.1-5.7c-1.5-3.5-0.7-4.9-4.2-7.4
			C592.5,638.2,580.7,646.8,580,655z"/>
		<path class="st4" d="M975.2,433.1c-2.9,2.8-12.9,11.2-9.8,16c3.2,4.8,14.1,0.5,17.9-1.2c3.9-1.7,17.9-7.1,15.4-13.1
			s-21.7,4.9-25.4,6.1"/>
		<path class="st5" d="M981.1,588.9c-21.7-2.8-38.8-6.8-55.8-21c-8.3-7-16.4-11.7-21.7-21.3c-3.7-6.7-5.5-14-14-15.8
			c-4.8-1-12.1,0.3-15.8-3.7c-0.7,3.6-1.5,7.2-2.3,10.7s-0.3,8.7-1.3,11.9c-1.3,4.2-10.2,7.8-9.7,11.9c0.2,1.4,4.8,6.4,5.6,7.7
			c2.7,4.8,5.4,8.4,10.1,11.4c5.5,3.6,11.9,5.8,17.8,8.6c8.9,4.2,13,8.5,17.5,17.1c2.6,5,4.9,10.1,7.6,15.1
			c3,5.7,7.5,10.5,10.6,16.1c5.3,9.8,4.4,22.9,6.1,33.6c1.6,10.6,2.8,20.4,0.9,30.8c-1.3,6.8,2,16.6-0.6,22.8
			c-3.3,7.7-17.5,12.4-25.3,12.4c-12.7,0-25.6-11.3-38.5-8.3c-3.8,0.9-4,1.8-6.8,5.2c-4.1,5-8.9,9.6-12.6,15
			c-2.4,3.6-4.4,9.9-8.1,12.5c-4.4,3-11.4,3.2-16.4,4.8c-5.4,1.8-14.9,4.1-18.8,8.9c-2.7,3.4-1.5,6.6-2.2,10.6
			c-1.6,9.7-9,18.3-13.4,26.9c-3.6,7.1-5.5,15.6-5.8,23.6c-0.2,7.1-0.2,12.6-1.9,19.6c-2.1,8.6-1.8,16.5-1.9,25.2
			c-0.1,8.5-2.3,16.7-2.1,25.4c0.3,11.3,5.8,24.3,15.6,30.5c11.3,7.3,27.1,9.7,36.5,19.6c4.5,4.7,7,11.4,9.9,17
			c5.1,9.7,11.5,11.9,22.6,13.6c14.5,2.2,28-0.8,40.2,8.9c9.1,7.2,17.1,18.2,28.9,20.8c13.5,3,25.1,2.4,34.9,13.6
			c9,10.3,9.7,25.4,20.2,33.9c7.1,5.8,16.8,8.9,25.9,9.2c5.4,0.2,9.7,0.5,15,1.5c5.9,1.1,11.7-0.4,17.5,0.3c3.8,0.5,5.7,2.7,9.3,3.7
			c3.9,1.1,7.8,0,11.7,0.2c13.3,0.6,22.4,10.7,33,17.4c16.1,10.2,40.3,13.4,53.3-3.6c5.5-7.2,7.1-18.3,8.9-27
			c2.1-10.3-4.5-18.8-5.6-28.7c-1-9,0.1-18.8,0.1-27.9c0-8.9-1-18.5,0.1-27.3c1.6-12.1,8.2-23.4,11.7-35c3.2-10.6,5.4-22,3.3-33
			c-1.4-7.6-2.4-14.7-1.4-22.5c0.7-6.2,2.8-11.9,6.1-17.2c1.9-3.1,7.6-7.6,9.1-11.1c2.2-5,0.5-12.9-2.6-17c-4.7-3.8-9-7.9-13-12.4
			c-2.2-2.4-9.9-9.1-10.2-13.3c-0.6-9.6,12.9-17.3,18.2-23.3c4.3-4.8,4.8-10.7,7.7-16.3c3.2-6.2,5.1-12.9,8.3-19.1
			c3.4-6.7,8-12,7.5-19.8c-0.4-6.6-4-13.8-7.7-19.1c-2.7-3.9-6-7.3-9.9-10.1c-6-5.2-10.4-10.9-15.7-16.8
			c-14.4-16-28.1-26.2-29.2-49.5c-0.5-10.9-8.2-20.3-8.1-31.9c0.1-8.8,5.2-17.1,10.3-23.9c3.7-4.9,8.3-6.4,13.2-9.8
			c2.9-2,4.8-4.7,5.7-8.2c0.5-2,0.7-3.9,0.4-5.9c0.2-3.3,1-5.7,1.5-8.9c0.9-5.2-0.2-5.4-5.5-6.7c-10.7-2.7-19.4-3.4-30.5-3.4
			c-9.7,0-18.9-0.1-28.5,1.4c-8.9,1.4-16.9,2.9-26,2.6c-8.3-0.2-13.9-2.8-21.2-6.1c-5-2.3-10.4-2.1-15.8-1.9
			c-7.2,0.2-10.2,3-15.1,7.8c-5.7,5.6-12.5,9.7-18.2,15.3c-4.4,4.3-14.9,12.4-21.7,10.2C983,574.5,979.7,591.3,981.1,588.9z"/>
		<path class="st6" d="M1094.9,579.3c-6.1,5.2-20.1-0.2-27.2-0.2c-9.6-0.1-28.3,0.1-33.4,9.9c-2.6,5-3.1,11.9-7.5,15.7
			c-7.4,6.4-21.2,7.3-30.4,9.3c-5.1,1.1-9.8,0.8-12,6.1c-2.6,6.4-0.4,17.4,1.4,23.5c3,9.8,6.2,20.1,3.6,30.5
			c-1.6,6.2-5.7,10.8-5.7,17.6c0,8,3.8,15.5,4.3,23.4c0.6,10.1-3,12-10.4,17.9c-9.3,7.5-15.2,18.4-19.4,29.2
			c-3.1,8,0.4,10.7,8.4,14.3c11.4,5.1,24.1,6.9,36.5,7.3c10,0.3,19.6-2.2,29.5-2.1c9.9,0.1,18.9,0.8,28.7,2.5
			c8.5,1.5,16.9,2.6,25.2-0.3c7-2.5,11-10,13.3-16.7c2.8-8.4,6.1-15.2,15-18.8c2.9-1.1,5.9-1.7,9-1.7c3.8-0.6,5.3-1.9,8.5-3.9
			c7.2-4.3,6.4-4.1,7.7-11.6c1.3-7.2,2.3-9.9-2.2-16.2c-4.9-6.7-11.4-6.1-17.4-10.9c-5.9-4.7-4.1-14.3-4.1-20.8
			c0-9-3.3-7.9-9.9-12.9c-6.5-4.8-6.9-11.9-5.3-19.3c2-9.3,7.4-21.6,15-27.5c2.5-1.7,5-3.5,7.4-5.4c1.9-2.8,0.1-6.3,0.5-9.3
			c0.5-4,3-7.9,2.2-12.1c-0.6-2.9-4-9.7-6.4-11.5C1116.9,583.2,1095.4,585.7,1094.9,579.3z"/>
		<path class="st6" d="M996.6,822.5c-2.4-8.5-16.5-10.4-23.6-11.8c-7.2-1.5-14.4-2.7-21.7-3.5c-5-0.4-12.3,1.1-17.1-1
			c-2.5-1.7-5-3.5-7.5-5.2c-4.9-2.9-10.4-4-16-4.1c-13.5-0.2-22.6,5.8-34.1,11.6c-5.8,3-9.5,5.2-14.1,9.8c-6.9,7-16,13.7-19,23.6
			c-2.5,8.2-0.6,18.5-0.7,27c-0.1,9.1,3,14.4,7.4,22.2c3.2,5.7,6.2,12.2,8.3,18.3c1,3.4,1.9,6.9,2.7,10.4c1.9,5.6,5.4,8.9,8.5,13.5
			c5.3,7.9,5.5,18.3,14.1,24.1c4.5,2.2,9.1,4.2,13.8,6.1c8.5,3.7,15.8,7.2,25,8.4c11.8,1.4,19.9,4.9,30.2,10.6
			c4.6,2.4,9.1,5,13.4,7.8c7.1,4,16.3,6,22.4,11.5c7.6,6.9,12.2,15.9,21.5,21.2c3.2,1.6,6.3,3.3,9.4,5.2c5,3.1,6.7,5.9,10.3,10.3
			c5.4,6.5,16.3,11.3,23.7,15.3c9.7,5.3,23.1,6.8,34,7.9c13.4,1.4,26.1-5.5,36.1-13.9c7.1-5.9,7.9-18.7,7.1-27.2
			c-0.9-9.7-5.7-18.5-7.7-28c-1.1-6.2-1.8-12.3-2.3-18.6c-1.1-6.7-3.3-12.8-3.6-19.6c-0.8-20,7.3-37.6,9.6-57.1
			c1.1-9.8-0.3-15.3-5.3-23.8c-5.5-9.3-10.2-16.7-13.8-26.9c-2.6-7.5-6-15-13.5-18.7c-9.5-4.7-22.9-1-33.1-1.6
			c-6.8-0.3-13-2.2-19.8-2.1c-4.6,0-9.2,0-13.8,0C1013.1,824.4,1001.5,839.4,996.6,822.5z"/>
		<path class="st5" d="M1119.3,1176.8c-6.4-2.5-7.9-2.8-13.5,1.8c-6.2,5.2-12.8,12.7-15.8,20.3c-7.9,20.3,10.3,38.2,7.9,58.2
			c-0.9,7-5.5,12.3-9.5,17.8c-5.6,7.8-11.7,15.2-17.3,22.9c-10.4,14.2-18.4,31.5-26.4,47.2c-4.6,9.1-6.8,16.8-7.8,26.9
			c-0.9,8.6-3.2,18.6-0.9,27.1c5.5,19.8,32,28.3,49.7,31.4c12.5,2.2,22.7,1.1,32.3-7.9c7.2-6.7,11.5-15.6,15.1-24.6
			c7.1-17.5,8.5-38.7,19.5-54.3c10.4-14.8,25-24.8,36.9-37.9c8.5-9.4,18.2-18,25.8-28.1c5.8-7.7,8.7-15.2,12-24.2
			c6.9-19.3,15.2-36.7,14.9-57.7c-0.2-12.6-9.2-20.6-17.6-28.8c-9.5-9.2-20.8-11.7-33.7-13.2c-11-1.2-25.4-2.1-35.9,1.5
			c-7.5,2.6-11.6,6.6-17.6,11.4C1128.5,1173.8,1128.7,1180.5,1119.3,1176.8z"/>
		<path class="st6" d="M1160.2,1192.3c-12.7,6-25.3,15.2-33.2,27.1c-10.3,15.6-7.8,39.5,8.8,49.7c8.5,5.2,20.3,8.5,30.4,7.3
			c12.2-1.5,20-10.1,28.1-18.5c10.5-10.9,20-25.5,18.8-41.6c-0.3-4.6-2.9-6.6-5.7-9.9c-2.2-2.6-3.9-6.2-6.6-8.4
			c-2.9-2.2-6.5-2.4-9.5-4.2c-2.7-1.6-4.1-3.9-7.2-5.1C1173.9,1185,1170.8,1187.3,1160.2,1192.3z"/>
		<path class="st6" d="M1103.7,1313c-17.4,18.8-30.4,40.8-34.8,66.3c-2,11.4,2.3,18.6,14.5,17.4c13.4-1.3,25.7-9.6,30.7-22.1
			c4.4-11.2,5.5-23.1,9.1-34.5c2.5-7.9,7.8-15.1,11.4-22.6c3.3-6.8,3.5-11.4-3.4-16.1C1123.4,1296.2,1109.1,1307.2,1103.7,1313z"/>
		<path class="st5" d="M543,1095c23.7-2.1,46.5-5.2,70.1-2.6c9.4,1,18.7,2.4,27.9,4.5c7.2,1.6,14.5,2.8,20.2,7.9
			c7.2,6.4,11.5,14,20,19.3c9.6,6,21.4,6.7,18.1,19.9c-2.8,11.1-2.3,21.6-2.6,32.9c-0.2,6.1-0.3,9.8,3.4,14.9
			c4.8,6.5,12.1,10.8,17.7,16.4c14.1,14.1,14.6,31.9,17.9,50.3c2.3,12.7,5,31.3,0.4,44c-5.7,16-27.2,18.4-41.6,18.8
			c-25.4,0.7-49.8-17.7-66.9-35c-10.2-10.3-18.3-22.5-27.6-33.6c-5.2-6.2-11.4-11.6-16.4-17.9c-8-10.3-12.6-23.7-21.5-33.1
			c-4.8-5.1-10.2-9.6-15.1-14.7c-4.3-4.5-6.8-9.4-10.4-14.5c-3.6-5.1-8.3-9.5-11.4-15c-2.9-5.2-5.1-10.8-7.8-16
			c-3.6-6.7-4.8-11.8-6.2-19.2c-1.2-6.3-2.9-12.1,0.9-18.1C517.7,1095.6,535,1100.8,543,1095z"/>
		<path class="st6" d="M620.9,1135.9c1.7-6.7-28.6-10.8-33.1-9.4c-15.5,4.5-24.1,24.4-19.8,38.7c7.3,24.3,20,48,36.2,67.4
			c7.7,9.2,15.2,13.6,26,18.4c7.1,3.2,17.7,10,26,7.4c15.1-4.8,4.1-26.8-0.6-35.4c-3.5-6.4-9.7-12.6-11.2-19.9
			c-1.3-6.2-0.9-14.7,1.7-20.5c3.2-7,7.9-18.8,1.9-25.9c-2.4-2-5-3.8-7.6-5.6c-2.8-2.3-5.5-4.8-7.8-7.6
			C626.1,1137.5,618.5,1145.4,620.9,1135.9z"/>
		<path class="st5" d="M784.4,1324.7c-14.4,20.1-25.5,48.9-11.5,72.5c5.8,9.9,19.2,22.8,31.3,23.6c12.1,0.8,27.5-8.1,31.2-19.8
			c3.7-11.6,2.1-26.9,1.7-39c-0.3-7.9-0.6-19.8-6.6-25.7c-2.9-2.3-6-4.4-9.2-6.2c-3.5-2.7-5.7-6.8-9.9-8.5
			c-5.6-2.3-16.7-1.6-22.5-0.5C787.5,1323.4,784.4,1322.1,784.4,1324.7z"/>
		<path class="st6" d="M792.2,1359.8c0.8,6.9-3.2,13.7-1.9,20.7c0.7,3.9,2.5,7.1,5.5,9.6c5.9,4.1,11.5-1.9,15.1-6.2
			c4.8-5.6,9.9-16.3,6.3-24c-5.1-10.7-18.3-7.2-27-6.1"/>
		<path class="st7" d="M986,937.8c3.6,3.3,6.6,7.4,10.6,10.2c9.7,6.7,23.5,4.2,33.2-2.5c9-6.1,15.8-15.7,17.7-26.3
			c2-10.7-1.2-22.4-8.9-30c-7.7-7.6-18.7-10.5-29.2-13.2c-8.4-2.1-16.8-4.3-25.2-6.4c-12.8-3.2-26.1-6.5-38.9-3.7
			c-12.9,2.8-25,13.8-24.4,26.9c0.6,13.9,14.1,23.6,27.2,28.3C961.2,925.9,975.7,928.4,986,937.8z"/>
		<path class="st7" d="M1040.9,644.9c-7.4,5.8-8.3,16.6-7.3,25.9s3.4,19,0.5,27.9c-1.7,5-5,9.8-4.6,15.1c0.6,7.7,9.5,12.8,17.1,11.6
			c7.6-1.3,13.7-7.1,18-13.6c9.7-14.9,11.8-33.5,12.3-51.4c0.2-8,0-16.5-4.4-23.2C1068,630.5,1047.2,640,1040.9,644.9z"/>
		<path class="st7" d="M599.3,1174.2c-0.7,5.7-1.3,11.6,0.7,17s7.5,9.9,13.1,8.7c7.2-1.6,9.6-10.5,10.3-17.8
			c0.6-5.7,0.9-11.8-1.6-17c-2.4-5.2-8.6-9.1-14-7.2C601.7,1160.1,600.1,1167.7,599.3,1174.2z"/>
		<path class="st7" d="M1159.1,1249.6c7.9-0.3,16.2-2.5,21.7-8.2c5.5-5.7,7.3-15.4,2.4-21.7c-5.1-6.5-15.5-6.8-22.3-2.3
			c-6.9,4.5-10.7,12.6-12.2,20.7c-0.6,2.8-0.8,6,0.8,8.3C1151.4,1249.3,1155.5,1249.8,1159.1,1249.6z"/>
		<path class="st5" d="M1268.4,1173.4c0.1,2.2-0.2,4.5,0.4,6.6c1.2,4.7,6.5,7.6,11.4,7c4.8-0.6,8.9-4,11.4-8.1
			c5.5-9.1,3.7-21.3-1.8-30.3s-14.3-15.7-23.1-21.7c-6.7-4.6-13.8-9-21.8-10.3c-8-1.3-17.1,1.4-21.3,8.3c-2.3,3.9-2.7,9.4,0.5,12.7
			c1.6,1.7,3.9,2.5,6.1,3.3c8.4,3,17.1,5.7,24.5,10.7C1262,1156.5,1268.1,1164.5,1268.4,1173.4z"/>
		<path class="st5" d="M740,954.1c-10.9-12.6-18.6-29.1-16.1-45.5c1.9-12.4,9.9-23.7,20.9-29.7c3.5-1.9,7.5-3.3,11.4-2.9
			c4,0.4,7.9,3.1,8.8,6.9c1.2,4.8-2.3,9.3-4.3,13.8c-4.4,9.6-2.3,21.1,2.4,30.6c4.6,9.5,11.6,17.6,17.6,26.4c1.5,2.2,2.9,4.6,3,7.2
			c0.1,5.6-6.1,9.3-11.7,9.8C759.5,971.8,748.1,963.5,740,954.1z"/>
	</g>
	<path class="st8" d="M563.1,360.3c-0.5-0.3-1.1-0.5-1.8-0.5c-0.6,0-1.2,0.2-1.8,0.5c-0.5,0.2-1.1,0.5-1.6,0.7
		c-1.8,0.8-1.8,3.8,0,4.6c0.5,0.2,1.1,0.5,1.6,0.7c0.5,0.3,1.1,0.5,1.8,0.5c0.6,0,1.2-0.2,1.8-0.5c1.1-0.6,1.7-1.8,1.7-3
		C564.8,362.1,564.1,360.9,563.1,360.3z"/>
	<path class="st8" d="M380,458.2c-0.7-0.7-1.4-1.2-2.4-1.5c-0.8-0.2-1.5-0.2-2.3-0.1c-2.6,0.1-4.7,2.1-4.7,4.7
		c0,2.6,2.1,4.6,4.7,4.7c0.3,0,0.7,0,1,0c1.4,0,2.7-0.7,3.7-1.7C381.6,462.7,381.6,459.9,380,458.2z"/>
	<path class="st8" d="M370.6,664.9c-0.1-0.6-0.2-1.3-0.3-1.9c-0.2-0.9-1.7-0.9-1.9,0c-0.1,0.6-0.2,1.3-0.3,1.9
		c-0.2,0.8,0.4,1.7,1.3,1.7C370.3,666.6,370.7,665.8,370.6,664.9z"/>
	<path class="st8" d="M413.4,1158.1c0-0.6-0.3-1.1-0.6-1.7c-0.6-1.1-2.4-1.1-3,0c-0.3,0.5-0.6,1.1-0.6,1.7c0,0.4,0,0.8,0,1.2
		c0,1.1,1,2.1,2.1,2.1s2.1-0.9,2.1-2.1C413.4,1158.9,413.4,1158.5,413.4,1158.1z"/>
	<path class="st8" d="M353.3,1328.9c-2.3,0-4.4,2-4.4,4.4c0,1,0,2.1,0.2,3c0.2,0.7,0.4,1.3,0.7,2c0.5,1.5,1.8,2.7,3.5,2.7
		c1.7,0,3-1.1,3.5-2.7c0.2-0.7,0.5-1.3,0.7-2c0.2-0.9,0.2-2,0.2-3C357.7,1330.9,355.6,1328.9,353.3,1328.9z"/>
	<path class="st8" d="M539.3,1471.2c-2.7,0-2.7,4.2,0,4.2S542,1471.2,539.3,1471.2z"/>
	<path class="st8" d="M406.8,1580.8c-0.5-0.3-1-0.7-1.6-0.8c-0.6-0.2-1.3-0.2-1.9-0.2c-1.9-0.1-3.6,1.7-3.6,3.6s1.6,3.7,3.6,3.6
		c0.6,0,1.3-0.1,1.9-0.2s1.1-0.5,1.6-0.8C408.7,1584.6,408.7,1582,406.8,1580.8z"/>
	<path class="st8" d="M700.7,1581.1c-0.6,0.1-1.3,0.3-1.9,0.4c-1.8,0.4-1.8,3.2,0,3.6c0.6,0.1,1.3,0.3,1.9,0.4
		c1.4,0.3,2.9-0.7,2.9-2.2S702.1,1580.8,700.7,1581.1z"/>
	<path class="st8" d="M342.4,876c-0.4,0.2-0.8,0.3-1.2,0.5c-0.8,0.3-1.4,0.7-2.1,1.3c-0.2,0.2-0.5,0.4-0.7,0.7
		c-1.6,1.5-1.5,4.2,0,5.8c1.5,1.5,4.2,1.6,5.8,0c0.5-0.6,1.1-1.1,1.5-1.8c0.4-0.6,0.6-1.5,0.9-2.2
		C347.4,877.9,344.7,875.2,342.4,876z"/>
	<path class="st8" d="M725.6,410.7c-0.1-0.6-0.3-1.3-0.4-1.9c-0.4-1.9-3.4-1.9-3.7,0c-0.1,0.6-0.3,1.3-0.4,1.9c-0.3,1.5,0.7,3,2.3,3
		S725.9,412.2,725.6,410.7z"/>
	<path class="st8" d="M973.3,291.9c-4.4,0-4.4,6.9,0,6.9S977.7,291.9,973.3,291.9z"/>
	<path class="st8" d="M1261.3,368c-1.7,0-1.7,2.6,0,2.6C1263,370.6,1263,368,1261.3,368z"/>
	<path class="st8" d="M1435.4,324.4c-0.9-0.8-1.8-1.1-2.9-1.3c-1.2-0.3-2.3-0.2-3.4,0.4c-1.3,0.8-2.2,2.2-2.2,3.8
		c0,1.2,0.5,2.3,1.3,3.1c1.1,1.1,2.7,1.5,4.3,1.1c0.7-0.2,1.5-0.3,2.1-0.7c1.2-0.7,2.2-2.1,2.2-3.6
		C1436.7,326.2,1436.2,325.1,1435.4,324.4z"/>
	<path class="st8" d="M1502.6,470.9c-0.1-0.6-0.2-1.3-0.3-1.9c-0.2-1-1.8-1-2,0c-0.1,0.6-0.2,1.3-0.3,1.9c-0.2,0.9,0.4,1.8,1.3,1.8
		S1502.8,471.8,1502.6,470.9z"/>
	<path class="st8" d="M1634.7,377.3l-1.9,0.4c-1.6,0.3-1.6,3,0,3.3l1.9,0.4c1.3,0.3,2.6-0.6,2.6-2S1636.1,377,1634.7,377.3z"/>
	<path class="st8" d="M1553.3,691.8c-1.9,0-1.9,3,0,3S1555.2,691.8,1553.3,691.8z"/>
	<path class="st8" d="M1642.5,758.4c-0.1-0.9-0.5-1.7-0.9-2.5c-0.8-1.8-3.9-1.8-4.6,0c-0.4,0.8-0.7,1.6-0.9,2.5
		c-0.1,0.9-0.2,1.7,0.3,2.5c0.6,1,1.7,1.6,2.9,1.6c0.9,0,1.7-0.4,2.3-1C1642.5,760.7,1642.7,759.6,1642.5,758.4z"/>
	<path class="st8" d="M1571.9,1016.7c-1.3-1.3-3.8-1.5-5.1,0c-0.4,0.4-0.7,0.8-1,1.3c-0.2,0.4-0.3,0.8-0.4,1.2
		c-0.1,0.2-0.2,0.4-0.3,0.7c-0.6,1.1-0.5,2.4,0.4,3.2c0.9,0.9,2.2,1,3.2,0.4l0.7-0.3c0.4-0.1,0.8-0.2,1.2-0.4c0.5-0.3,0.9-0.7,1.3-1
		C1573.3,1020.6,1573.2,1018.1,1571.9,1016.7z"/>
	<path class="st8" d="M1647.3,1127.6c-2.2,0-2.2,3.4,0,3.4S1649.5,1127.6,1647.3,1127.6z"/>
	<path class="st8" d="M1507,1302.1C1507,1302,1506.9,1302,1507,1302.1c-0.1-0.2-0.1-0.3-0.2-0.4c-0.1-0.2-0.1-0.5-0.2-0.7
		c-0.3-1.3-2.3-1.3-2.6,0c-0.1,0.2-0.1,0.5-0.2,0.7c0,0.1,0,0.2-0.1,0.3c0,0,0,0.1-0.1,0.1c-0.8,1.2,0.3,2.9,1.7,2.9
		S1507.8,1303.4,1507,1302.1z"/>
	<path class="st8" d="M1559.3,1475c-5.6,0-5.6,8.7,0,8.7S1564.9,1475,1559.3,1475z"/>
	<path class="st8" d="M1427.3,1487.3c-5.1,0-5.1,8,0,8S1432.4,1487.3,1427.3,1487.3z"/>
	<path class="st8" d="M1347.3,1595.6c-2.2,0-2.2,3.4,0,3.4S1349.5,1595.6,1347.3,1595.6z"/>
	<path class="st8" d="M1164.7,1515l-1.9,0.5c-1.9,0.5-1.9,3.3,0,3.7c0.6,0.2,1.2,0.3,1.9,0.5c1.5,0.4,3.1-0.7,3.1-2.3
		S1166.2,1514.6,1164.7,1515z"/>
	<path class="st8" d="M994.6,1557.4c-0.7-1.2-2-1.9-3.3-1.9c-0.3,0-0.5,0-0.8,0c-1.6-0.5-3.6,0.1-4.8,1.3c-1.6,1.6-1.9,4.1-0.8,6.1
		c0.9,1.5,2.6,2.5,4.3,2.5c2.1,0,3.9-1.3,4.6-3.2c0,0,0.1,0,0.2-0.2l0.5-0.6C995.4,1560.2,995.3,1558.4,994.6,1557.4z"/>
</g>
</svg>
